<svg width="275" height="195" viewBox="0 0 275 195" fill="none" xmlns="http://www.w3.org/2000/svg">
    <mask id="mask0" mask-type="alpha" maskUnits="userSpaceOnUse" x="-238" y="-1" width="513" height="196">
        <rect x="-238" y="-0.000488281" width="513" height="195" rx="25" fill="url(#paint0_linear)" fill-opacity="0.15"/>
    </mask>
    <g mask="url(#mask0)">
        <path d="M328.273 115.61C324.391 122.195 319.465 126.348 313.638 127.787C299.332 131.326 280.905 117.881 263.076 90.9001C228.287 38.2441 204.607 -51.1564 210.29 -108.38C212.885 -134.507 221.328 -150.633 234.065 -153.782C248.371 -157.322 266.797 -143.876 284.626 -116.895C319.415 -64.2393 343.096 25.1613 337.413 82.385C336.011 96.567 332.876 107.801 328.273 115.61ZM210.878 -108.321L211.461 -108.265C205.801 -51.2689 229.396 37.7879 264.062 90.254C281.597 116.797 299.567 130.062 313.362 126.65C325.585 123.626 333.713 107.866 336.255 82.2665C341.916 25.2702 318.321 -63.7866 283.655 -116.253C266.12 -142.796 248.15 -156.06 234.354 -152.649C222.134 -149.629 214.004 -133.865 211.461 -108.265L210.878 -108.321Z" fill="url(#paint1_linear)"/>
        <path d="M328.273 115.61C324.391 122.195 319.465 126.348 313.638 127.787C299.332 131.326 280.905 117.881 263.076 90.9001C228.287 38.2441 204.607 -51.1564 210.29 -108.38C212.885 -134.507 221.328 -150.633 234.065 -153.782C248.371 -157.322 266.797 -143.876 284.626 -116.895C319.415 -64.2393 343.096 25.1613 337.413 82.385C336.011 96.567 332.876 107.801 328.273 115.61ZM210.878 -108.321L211.461 -108.265C205.801 -51.2689 229.396 37.7879 264.062 90.254C281.597 116.797 299.567 130.062 313.362 126.65C325.585 123.626 333.713 107.866 336.255 82.2665C341.916 25.2702 318.321 -63.7866 283.655 -116.253C266.12 -142.796 248.15 -156.06 234.354 -152.649C222.134 -149.629 214.004 -133.865 211.461 -108.265L210.878 -108.321Z" fill="url(#paint2_linear)"/>
        <path d="M326.806 121.116C322.27 128.811 316.536 133.488 309.837 134.752C294.167 137.717 274.812 121.821 256.726 91.1429C222.611 33.2705 202.33 -60.4915 211.513 -117.866C215.547 -143.067 224.913 -158.298 237.878 -160.748C253.548 -163.713 272.902 -147.817 290.988 -117.139C325.104 -59.2664 345.385 34.4955 336.202 91.8696C334.251 104.054 331.053 113.913 326.806 121.116ZM221.909 -146.528C217.745 -139.464 214.603 -129.743 212.67 -117.677C203.52 -60.5294 223.733 32.8809 257.738 90.553C275.555 120.78 294.466 136.472 309.621 133.604C322.065 131.251 331.094 116.362 335.047 91.6877C344.196 34.5403 323.977 -58.8682 289.979 -116.542C272.161 -146.769 253.25 -162.461 238.095 -159.593C231.733 -158.393 226.263 -153.914 221.909 -146.528Z" fill="url(#paint3_linear)"/>
        <path d="M326.806 121.116C322.27 128.811 316.536 133.488 309.837 134.752C294.167 137.717 274.812 121.821 256.726 91.1429C222.611 33.2705 202.33 -60.4915 211.513 -117.866C215.547 -143.067 224.913 -158.298 237.878 -160.748C253.548 -163.713 272.902 -147.817 290.988 -117.139C325.104 -59.2664 345.385 34.4955 336.202 91.8696C334.251 104.054 331.053 113.913 326.806 121.116ZM221.909 -146.528C217.745 -139.464 214.603 -129.743 212.67 -117.677C203.52 -60.5294 223.733 32.8809 257.738 90.553C275.555 120.78 294.466 136.472 309.621 133.604C322.065 131.251 331.094 116.362 335.047 91.6877C344.196 34.5403 323.977 -58.8682 289.979 -116.542C272.161 -146.769 253.25 -162.461 238.095 -159.593C231.733 -158.393 226.263 -153.914 221.909 -146.528Z" fill="url(#paint4_linear)"/>
        <path d="M325.256 126.039C319.913 135.103 313.188 140.405 305.456 141.419C288.319 143.665 268.085 125.138 249.949 90.5896C216.833 27.505 200.406 -70.2558 213.329 -127.34C218.787 -151.45 229.061 -165.681 242.253 -167.411C259.39 -169.657 279.626 -151.134 297.76 -116.581C330.875 -53.4967 347.302 44.2641 334.379 101.348C332.122 111.333 329.034 119.629 325.256 126.039ZM223.47 -151.455C219.758 -145.158 216.716 -136.97 214.474 -127.081C201.606 -70.2295 217.988 27.1699 250.991 90.0471C268.886 124.136 288.685 142.437 305.307 140.257C317.977 138.595 327.898 124.685 333.241 101.088C346.109 44.236 329.73 -53.1677 296.724 -116.041C278.829 -150.13 259.03 -168.43 242.408 -166.25C235.044 -165.283 228.615 -160.183 223.47 -151.455Z" fill="url(#paint5_linear)"/>
        <path d="M325.256 126.039C319.913 135.103 313.188 140.405 305.456 141.419C288.319 143.665 268.085 125.138 249.949 90.5896C216.833 27.505 200.406 -70.2558 213.329 -127.34C218.787 -151.45 229.061 -165.681 242.253 -167.411C259.39 -169.657 279.626 -151.134 297.76 -116.581C330.875 -53.4967 347.302 44.2641 334.379 101.348C332.122 111.333 329.034 119.629 325.256 126.039ZM223.47 -151.455C219.758 -145.158 216.716 -136.97 214.474 -127.081C201.606 -70.2295 217.988 27.1699 250.991 90.0471C268.886 124.136 288.685 142.437 305.307 140.257C317.977 138.595 327.898 124.685 333.241 101.088C346.109 44.236 329.73 -53.1677 296.724 -116.041C278.829 -150.13 259.03 -168.43 242.408 -166.25C235.044 -165.283 228.615 -160.183 223.47 -151.455Z" fill="url(#paint6_linear)"/>
        <path d="M323.63 130.548C317.352 141.198 309.519 147.055 300.474 147.707C281.75 149.059 260.717 127.723 242.772 89.1655C211.008 20.9182 198.897 -80.4174 215.778 -136.736C222.731 -159.935 233.607 -172.719 247.231 -173.707C265.955 -175.059 286.988 -153.723 304.933 -115.165C336.698 -46.9112 348.81 54.4244 331.927 110.736C329.59 118.536 326.81 125.153 323.63 130.548ZM225.088 -155.956C221.959 -150.648 219.218 -144.115 216.904 -136.395C200.094 -80.3165 212.177 20.6498 243.838 88.6723C261.57 126.764 282.178 147.855 300.394 146.538C313.488 145.59 324.007 133.095 330.81 110.4C347.62 54.3217 335.537 -46.6445 303.876 -114.667C286.144 -152.759 265.536 -173.85 247.32 -172.533C238.678 -171.908 231.158 -166.253 225.088 -155.956Z" fill="url(#paint7_linear)"/>
        <path d="M323.63 130.548C317.352 141.198 309.519 147.055 300.474 147.707C281.75 149.059 260.717 127.723 242.772 89.1655C211.008 20.9182 198.897 -80.4174 215.778 -136.736C222.731 -159.935 233.607 -172.719 247.231 -173.707C265.955 -175.059 286.988 -153.723 304.933 -115.165C336.698 -46.9112 348.81 54.4244 331.927 110.736C329.59 118.536 326.81 125.153 323.63 130.548ZM225.088 -155.956C221.959 -150.648 219.218 -144.115 216.904 -136.395C200.094 -80.3165 212.177 20.6498 243.838 88.6723C261.57 126.764 282.178 147.855 300.394 146.538C313.488 145.59 324.007 133.095 330.81 110.4C347.62 54.3217 335.537 -46.6445 303.876 -114.667C286.144 -152.759 265.536 -173.85 247.32 -172.533C238.678 -171.908 231.158 -166.253 225.088 -155.956Z" fill="url(#paint8_linear)"/>
        <path d="M322.179 133.967C314.663 146.717 305.372 153.424 294.853 153.547C274.435 153.789 252.7 129.462 235.223 86.8118C205.18 13.4952 197.864 -90.9261 218.908 -145.959L219.454 -145.749L218.908 -145.959C227.248 -167.766 238.987 -179.383 252.858 -179.544C273.276 -179.786 295.011 -155.459 312.487 -112.809C342.531 -39.4921 349.847 64.9292 328.803 119.962C326.787 125.233 324.573 129.906 322.179 133.967ZM226.548 -159.376C224.187 -155.372 221.999 -150.754 220.006 -145.541C199.052 -90.7488 206.36 13.2865 236.309 86.3652C253.343 127.932 275.22 152.608 294.839 152.376C308.186 152.217 319.55 140.867 327.704 119.544C348.662 64.7476 341.351 -39.2834 311.402 -112.362C294.368 -153.929 272.491 -178.605 252.872 -178.373C242.789 -178.252 233.838 -171.743 226.548 -159.376Z" fill="url(#paint9_linear)"/>
        <path d="M322.179 133.967C314.663 146.717 305.372 153.424 294.853 153.547C274.435 153.789 252.7 129.462 235.223 86.8118C205.18 13.4952 197.864 -90.9261 218.908 -145.959L219.454 -145.749L218.908 -145.959C227.248 -167.766 238.987 -179.383 252.858 -179.544C273.276 -179.786 295.011 -155.459 312.487 -112.809C342.531 -39.4921 349.847 64.9292 328.803 119.962C326.787 125.233 324.573 129.906 322.179 133.967ZM226.548 -159.376C224.187 -155.372 221.999 -150.754 220.006 -145.541C199.052 -90.7488 206.36 13.2865 236.309 86.3652C253.343 127.932 275.22 152.608 294.839 152.376C308.186 152.217 319.55 140.867 327.704 119.544C348.662 64.7476 341.351 -39.2834 311.402 -112.362C294.368 -153.929 272.491 -178.605 252.872 -178.373C242.789 -178.252 233.838 -171.743 226.548 -159.376Z" fill="url(#paint10_linear)"/>
        <path d="M321.034 136.357C311.961 151.748 300.83 159.495 288.542 158.864C266.659 157.737 243.768 129.551 227.318 83.4667C199.38 5.21402 197.332 -101.728 222.746 -154.93C232.444 -175.237 245.041 -185.579 259.17 -184.855C281.053 -183.728 303.944 -155.542 320.394 -109.458C348.33 -31.212 350.383 75.7322 324.969 128.935C323.705 131.577 322.393 134.051 321.034 136.357ZM223.272 -154.678L223.799 -154.426C198.5 -101.468 200.574 5.07203 228.42 83.0713C244.707 128.696 267.205 156.591 288.605 157.691C302.226 158.392 314.433 148.272 323.908 128.433C349.208 75.4742 347.134 -31.0656 319.287 -109.065C303.001 -154.689 280.503 -182.584 259.107 -183.682C245.487 -184.383 233.279 -174.263 223.801 -154.419L223.272 -154.678Z" fill="url(#paint11_linear)"/>
        <path d="M321.034 136.357C311.961 151.748 300.83 159.495 288.542 158.864C266.659 157.737 243.768 129.551 227.318 83.4667C199.38 5.21402 197.332 -101.728 222.746 -154.93C232.444 -175.237 245.041 -185.579 259.17 -184.855C281.053 -183.728 303.944 -155.542 320.394 -109.458C348.33 -31.212 350.383 75.7322 324.969 128.935C323.705 131.577 322.393 134.051 321.034 136.357ZM223.272 -154.678L223.799 -154.426C198.5 -101.468 200.574 5.07203 228.42 83.0713C244.707 128.696 267.205 156.591 288.605 157.691C302.226 158.392 314.433 148.272 323.908 128.433C349.208 75.4742 347.134 -31.0656 319.287 -109.065C303.001 -154.689 280.503 -182.584 259.107 -183.682C245.487 -184.383 233.279 -174.263 223.801 -154.419L223.272 -154.678Z" fill="url(#paint12_linear)"/>
        <path d="M320.409 137.539C320.403 137.548 320.398 137.556 320.393 137.565C309.361 156.27 295.91 165.251 281.491 163.545C257.762 160.737 234.43 129.156 219.09 79.0691C193.671 -3.90511 197.355 -112.723 227.301 -163.523C227.306 -163.532 227.312 -163.541 227.317 -163.549C238.349 -182.254 251.799 -191.236 266.219 -189.529C289.948 -186.722 313.277 -155.137 328.62 -105.054C354.042 -22.0837 350.355 86.7381 320.409 137.539ZM228.311 -162.934C198.508 -112.378 194.876 -3.98734 220.211 78.7204C235.416 128.352 258.377 159.625 281.633 162.378C295.553 164.025 308.607 155.238 319.385 136.965C319.387 136.96 319.395 136.947 319.4 136.939C349.207 86.3844 352.838 -22.0128 327.499 -104.716C312.295 -154.347 289.334 -185.621 266.078 -188.374C252.158 -190.021 239.104 -181.234 228.326 -162.96C228.321 -162.952 228.316 -162.943 228.311 -162.934Z" fill="url(#paint13_linear)"/>
        <path d="M320.409 137.539C320.403 137.548 320.398 137.556 320.393 137.565C309.361 156.27 295.91 165.251 281.491 163.545C257.762 160.737 234.43 129.156 219.09 79.0691C193.671 -3.90511 197.355 -112.723 227.301 -163.523C227.306 -163.532 227.312 -163.541 227.317 -163.549C238.349 -182.254 251.799 -191.236 266.219 -189.529C289.948 -186.722 313.277 -155.137 328.62 -105.054C354.042 -22.0837 350.355 86.7381 320.409 137.539ZM228.311 -162.934C198.508 -112.378 194.876 -3.98734 220.211 78.7204C235.416 128.352 258.377 159.625 281.633 162.378C295.553 164.025 308.607 155.238 319.385 136.965C319.387 136.96 319.395 136.947 319.4 136.939C349.207 86.3844 352.838 -22.0128 327.499 -104.716C312.295 -154.347 289.334 -185.621 266.078 -188.374C252.158 -190.021 239.104 -181.234 228.326 -162.96C228.321 -162.952 228.316 -162.943 228.311 -162.934Z" fill="url(#paint14_linear)"/>
        <path d="M320.446 137.485C318.72 140.413 316.926 143.166 315.054 145.745C302.698 162.77 288.378 170.288 273.638 167.483C248.02 162.61 224.447 127.493 210.577 73.5577C188.082 -13.9287 197.991 -123.962 232.65 -171.732C245.006 -188.758 259.326 -196.276 274.067 -193.47C299.682 -188.593 323.257 -153.481 337.128 -99.5452C358.407 -16.7799 350.688 86.1714 320.446 137.485ZM228.252 -162.846C198.156 -111.792 190.508 -9.23952 211.72 73.2625C225.471 126.752 248.702 161.544 273.861 166.328C288.12 169.044 302.034 161.686 314.107 145.051C348.585 97.5385 358.41 -12.0632 335.995 -99.2562C322.243 -152.746 299.013 -187.538 273.853 -192.322C259.595 -195.037 245.68 -187.679 233.608 -171.045C231.748 -168.488 229.963 -165.748 228.252 -162.846Z" fill="url(#paint15_linear)"/>
        <path d="M320.446 137.485C318.72 140.413 316.926 143.166 315.054 145.745C302.698 162.77 288.378 170.288 273.638 167.483C248.02 162.61 224.447 127.493 210.577 73.5577C188.082 -13.9287 197.991 -123.962 232.65 -171.732C245.006 -188.758 259.326 -196.276 274.067 -193.47C299.682 -188.593 323.257 -153.481 337.128 -99.5452C358.407 -16.7799 350.688 86.1714 320.446 137.485ZM228.252 -162.846C198.156 -111.792 190.508 -9.23952 211.72 73.2625C225.471 126.752 248.702 161.544 273.861 166.328C288.12 169.044 302.034 161.686 314.107 145.051C348.585 97.5385 358.41 -12.0632 335.995 -99.2562C322.243 -152.746 299.013 -187.538 273.853 -192.322C259.595 -195.037 245.68 -187.679 233.608 -171.045C231.748 -168.488 229.963 -165.748 228.252 -162.846Z" fill="url(#paint16_linear)"/>
        <path d="M321.385 136.059C317.532 142.596 313.376 148.401 308.923 153.375C295.232 168.662 280.01 174.592 264.907 170.539C237.418 163.154 213.838 124.404 201.834 66.8828C182.706 -24.8017 199.289 -135.27 238.792 -179.362C252.483 -194.649 267.705 -200.579 282.808 -196.526C310.298 -189.141 333.878 -150.391 345.882 -92.8701C362.849 -11.5254 351.707 84.6112 321.385 136.059ZM227.292 -161.397C197.125 -110.222 186.063 -14.4495 202.982 66.638C214.887 123.719 238.152 162.136 265.208 169.401C279.852 173.336 294.671 167.521 308.048 152.589C312.463 147.658 316.595 141.885 320.417 135.401C350.589 84.2278 361.646 -11.5473 344.727 -92.6347C332.815 -149.714 309.557 -188.133 282.501 -195.398C267.857 -199.333 253.038 -193.518 239.661 -178.586C235.25 -173.652 231.112 -167.877 227.292 -161.397Z" fill="url(#paint17_linear)"/>
        <path d="M321.385 136.059C317.532 142.596 313.376 148.401 308.923 153.375C295.232 168.662 280.01 174.592 264.907 170.539C237.418 163.154 213.838 124.404 201.834 66.8828C182.706 -24.8017 199.289 -135.27 238.792 -179.362C252.483 -194.649 267.705 -200.579 282.808 -196.526C310.298 -189.141 333.878 -150.391 345.882 -92.8701C362.849 -11.5254 351.707 84.6112 321.385 136.059ZM227.292 -161.397C197.125 -110.222 186.063 -14.4495 202.982 66.638C214.887 123.719 238.152 162.136 265.208 169.401C279.852 173.336 294.671 167.521 308.048 152.589C312.463 147.658 316.595 141.885 320.417 135.401C350.589 84.2278 361.646 -11.5473 344.727 -92.6347C332.815 -149.714 309.557 -188.133 282.501 -195.398C267.857 -199.333 253.038 -193.518 239.661 -178.586C235.25 -173.652 231.112 -167.877 227.292 -161.397Z" fill="url(#paint18_linear)"/>
        <path d="M323.524 133.098C317.056 144.07 309.84 153.304 301.975 160.341C286.898 173.825 270.72 178.04 255.194 172.534C225.916 162.145 202.63 119.699 192.892 58.9923C177.577 -36.5216 201.282 -146.579 245.737 -186.332C260.814 -199.815 276.991 -204.031 292.518 -198.524C321.795 -188.136 345.081 -145.69 354.82 -84.983C367.423 -6.37521 353.597 82.0838 323.524 133.098ZM225.139 -158.433C195.224 -107.685 181.486 -19.5553 194.052 58.8072C203.718 119.078 226.72 161.18 255.588 171.427C270.684 176.786 286.458 172.649 301.196 159.471C345.388 119.945 368.925 10.3703 353.664 -84.7953C343.996 -145.073 320.994 -187.175 292.128 -197.415C277.032 -202.774 261.258 -198.637 246.524 -185.456C238.713 -178.481 231.554 -169.314 225.139 -158.433Z" fill="url(#paint19_linear)"/>
        <path d="M323.524 133.098C317.056 144.07 309.84 153.304 301.975 160.341C286.898 173.825 270.72 178.04 255.194 172.534C225.916 162.145 202.63 119.699 192.892 58.9923C177.577 -36.5216 201.282 -146.579 245.737 -186.332C260.814 -199.815 276.991 -204.031 292.518 -198.524C321.795 -188.136 345.081 -145.69 354.82 -84.983C367.423 -6.37521 353.597 82.0838 323.524 133.098ZM225.139 -158.433C195.224 -107.685 181.486 -19.5553 194.052 58.8072C203.718 119.078 226.72 161.18 255.588 171.427C270.684 176.786 286.458 172.649 301.196 159.471C345.388 119.945 368.925 10.3703 353.664 -84.7953C343.996 -145.073 320.994 -187.175 292.128 -197.415C277.032 -202.774 261.258 -198.637 246.524 -185.456C238.713 -178.481 231.554 -169.314 225.139 -158.433Z" fill="url(#paint20_linear)"/>
        <path d="M327.175 128.509C317.537 144.859 306.424 157.954 294.198 166.531C277.642 178.151 260.421 180.471 244.403 173.248C213.545 159.326 190.894 113.192 183.817 49.8435C172.763 -49.0721 204.028 -157.802 253.512 -192.529C270.068 -204.149 287.289 -206.469 303.307 -199.246C334.166 -185.324 356.816 -139.19 363.893 -75.8412C372.217 -1.35919 356.546 78.6844 327.175 128.509ZM221.488 -153.863C192.266 -104.291 176.684 -24.5359 184.982 49.7199C192.011 112.652 214.407 158.431 244.885 172.182C260.507 179.23 277.327 176.943 293.523 165.575C342.694 131.069 373.738 22.8252 362.726 -75.7133C355.692 -138.648 333.299 -184.432 302.818 -198.178C287.197 -205.226 270.377 -202.939 254.181 -191.571C242.067 -183.064 231.047 -170.077 221.488 -153.863Z" fill="url(#paint21_linear)"/>
        <path d="M327.175 128.509C317.537 144.859 306.424 157.954 294.198 166.531C277.642 178.151 260.421 180.471 244.403 173.248C213.545 159.326 190.894 113.192 183.817 49.8435C172.763 -49.0721 204.028 -157.802 253.512 -192.529C270.068 -204.149 287.289 -206.469 303.307 -199.246C334.166 -185.324 356.816 -139.19 363.893 -75.8412C372.217 -1.35919 356.546 78.6844 327.175 128.509ZM221.488 -153.863C192.266 -104.291 176.684 -24.5359 184.982 49.7199C192.011 112.652 214.407 158.431 244.885 172.182C260.507 179.23 277.327 176.943 293.523 165.575C342.694 131.069 373.738 22.8252 362.726 -75.7133C355.692 -138.648 333.299 -184.432 302.818 -198.178C287.197 -205.226 270.377 -202.939 254.181 -191.571C242.067 -183.064 231.047 -170.077 221.488 -153.863Z" fill="url(#paint22_linear)"/>
        <path d="M332.611 122.337C319.207 145.075 303.201 162.486 285.588 171.844C267.399 181.503 249.018 181.706 232.435 172.424C200.319 154.45 178.722 104.726 174.663 39.4159C168.334 -62.427 207.568 -168.855 262.124 -197.833C280.313 -207.492 298.691 -207.691 315.277 -198.413C347.393 -180.438 368.99 -130.714 373.05 -65.4046C377.337 3.56264 360.726 74.6432 332.611 122.337ZM216.064 -147.717C188.087 -100.259 171.557 -29.4244 175.833 39.3426C179.868 104.256 201.243 153.62 233.009 171.401C249.23 180.481 267.219 180.275 285.041 170.811C339.23 142.028 378.186 36.0996 371.883 -65.3288C367.846 -130.238 346.473 -179.606 314.707 -197.387C298.487 -206.467 280.497 -206.261 262.676 -196.797C245.223 -187.532 229.354 -170.263 216.064 -147.717Z" fill="url(#paint23_linear)"/>
        <path d="M332.611 122.337C319.207 145.075 303.201 162.486 285.588 171.844C267.399 181.503 249.018 181.706 232.435 172.424C200.319 154.45 178.722 104.726 174.663 39.4159C168.334 -62.427 207.568 -168.855 262.124 -197.833C280.313 -207.492 298.691 -207.691 315.277 -198.413C347.393 -180.438 368.99 -130.714 373.05 -65.4046C377.337 3.56264 360.726 74.6432 332.611 122.337ZM216.064 -147.717C188.087 -100.259 171.557 -29.4244 175.833 39.3426C179.868 104.256 201.243 153.62 233.009 171.401C249.23 180.481 267.219 180.275 285.041 170.811C339.23 142.028 378.186 36.0996 371.883 -65.3288C367.846 -130.238 346.473 -179.606 314.707 -197.387C298.487 -206.467 280.497 -206.261 262.676 -196.797C245.223 -187.532 229.354 -170.263 216.064 -147.717Z" fill="url(#paint24_linear)"/>
        <path d="M339.997 114.817C322.273 144.884 300.182 167.058 276.134 176.128C256.102 183.685 236.41 181.46 219.196 169.692C186.299 147.205 166.221 94.1078 165.492 27.6496C164.345 -76.5585 211.935 -179.641 271.575 -202.133C291.608 -209.689 311.3 -207.464 328.513 -195.697C361.41 -173.21 381.489 -120.112 382.217 -53.6542C382.9 8.53797 366.227 70.3218 339.997 114.817ZM208.697 -140.241C182.588 -95.9506 165.987 -34.3704 166.669 27.6448C167.39 93.717 187.278 146.461 219.859 168.726C236.744 180.265 256.06 182.451 275.722 175.034C334.939 152.703 382.188 50.1189 381.044 -53.6355C380.318 -119.71 360.435 -172.452 327.852 -194.724C310.967 -206.263 291.649 -208.444 271.989 -201.032C248.166 -192.046 226.275 -170.06 208.697 -140.241Z" fill="url(#paint25_linear)"/>
        <path d="M339.997 114.817C322.273 144.884 300.182 167.058 276.134 176.128C256.102 183.685 236.41 181.46 219.196 169.692C186.299 147.205 166.221 94.1078 165.492 27.6496C164.345 -76.5585 211.935 -179.641 271.575 -202.133C291.608 -209.689 311.3 -207.464 328.513 -195.697C361.41 -173.21 381.489 -120.112 382.217 -53.6542C382.9 8.53797 366.227 70.3218 339.997 114.817ZM208.697 -140.241C182.588 -95.9506 165.987 -34.3704 166.669 27.6448C167.39 93.717 187.278 146.461 219.859 168.726C236.744 180.265 256.06 182.451 275.722 175.034C334.939 152.703 382.188 50.1189 381.044 -53.6355C380.318 -119.71 360.435 -172.452 327.852 -194.724C310.967 -206.263 291.649 -208.444 271.989 -201.032C248.166 -192.046 226.275 -170.06 208.697 -140.241Z" fill="url(#paint26_linear)"/>
        <path d="M349.352 106.487C326.845 144.668 297.342 171.856 265.844 179.288C243.685 184.517 222.526 179.471 204.649 164.694C171.597 137.371 153.551 81.2441 156.387 14.556C160.892 -91.3998 217.182 -190.017 281.867 -205.278C304.026 -210.506 325.185 -205.461 343.062 -190.684C376.114 -163.361 394.16 -107.234 391.324 -40.5458C389.013 13.8158 373.069 66.2533 349.352 106.487ZM199.363 -131.938C175.745 -91.8742 159.861 -39.6073 157.56 14.6076C154.741 80.9295 172.623 136.696 205.399 163.791C222.979 178.324 243.788 183.286 265.576 178.15C329.784 163 385.672 64.875 390.155 -40.5948C392.975 -106.917 375.09 -162.69 342.317 -189.778C324.736 -204.311 303.927 -209.273 282.139 -204.137C250.932 -196.779 221.69 -169.814 199.363 -131.938Z" fill="url(#paint27_linear)"/>
        <path d="M349.352 106.487C326.845 144.668 297.342 171.856 265.844 179.288C243.685 184.517 222.526 179.471 204.649 164.694C171.597 137.371 153.551 81.2441 156.387 14.556C160.892 -91.3998 217.182 -190.017 281.867 -205.278C304.026 -210.506 325.185 -205.461 343.062 -190.684C376.114 -163.361 394.16 -107.234 391.324 -40.5458C389.013 13.8158 373.069 66.2533 349.352 106.487ZM199.363 -131.938C175.745 -91.8742 159.861 -39.6073 157.56 14.6076C154.741 80.9295 172.623 136.696 205.399 163.791C222.979 178.324 243.788 183.286 265.576 178.15C329.784 163 385.672 64.875 390.155 -40.5948C392.975 -106.917 375.09 -162.69 342.317 -189.778C324.736 -204.311 303.927 -209.273 282.139 -204.137C250.932 -196.779 221.69 -169.814 199.363 -131.938Z" fill="url(#paint28_linear)"/>
        <path d="M360.488 98.1071C332.917 144.877 294.539 177.02 254.728 181.185C230.11 183.76 207.317 175.391 188.818 156.988C156.36 124.701 140.888 66.0516 147.423 0.0999366C158.028 -106.91 223.328 -199.893 292.985 -207.174C317.603 -209.749 340.396 -201.38 358.895 -182.977C391.353 -150.691 406.825 -92.0409 400.289 -26.0893C395.746 19.7575 381.156 63.0459 360.488 98.1071ZM188.243 -123.573C167.655 -88.6465 153.118 -45.5086 148.588 0.216684C142.088 65.8193 157.435 124.113 189.644 156.154C207.884 174.299 230.348 182.549 254.607 180.015C323.739 172.789 388.57 80.2817 399.125 -26.2061C405.628 -91.813 390.281 -150.107 358.067 -182.15C339.827 -200.295 317.363 -208.546 293.104 -206.012C253.656 -201.886 215.606 -169.99 188.243 -123.573Z" fill="url(#paint29_linear)"/>
        <path d="M360.488 98.1071C332.917 144.877 294.539 177.02 254.728 181.185C230.11 183.76 207.317 175.391 188.818 156.988C156.36 124.701 140.888 66.0516 147.423 0.0999366C158.028 -106.91 223.328 -199.893 292.985 -207.174C317.603 -209.749 340.396 -201.38 358.895 -182.977C391.353 -150.691 406.825 -92.0409 400.289 -26.0893C395.746 19.7575 381.156 63.0459 360.488 98.1071ZM188.243 -123.573C167.655 -88.6465 153.118 -45.5086 148.588 0.216684C142.088 65.8193 157.435 124.113 189.644 156.154C207.884 174.299 230.348 182.549 254.607 180.015C323.739 172.789 388.57 80.2817 399.125 -26.2061C405.628 -91.813 390.281 -150.107 358.067 -182.15C339.827 -200.295 317.363 -208.546 293.104 -206.012C253.656 -201.886 215.606 -169.99 188.243 -123.573Z" fill="url(#paint30_linear)"/>
        <path d="M373.084 90.5943C340.38 146.082 291.581 182.646 242.808 181.692C215.356 181.157 190.804 168.868 171.816 146.155C140.791 109.047 128.402 48.5332 138.676 -15.7202C155.834 -123.03 230.407 -209.143 304.907 -207.686C332.359 -207.151 356.909 -194.858 375.897 -172.144C406.921 -135.037 419.31 -74.5229 409.037 -10.2695C403.111 26.7878 390.331 61.3262 373.084 90.5943ZM175.656 -116.055C158.468 -86.8984 145.735 -52.4793 139.828 -15.534C129.61 48.3876 141.905 108.552 172.711 145.403C191.482 167.847 215.724 179.994 242.828 180.523C316.766 181.967 390.807 96.2977 407.877 -10.454C418.096 -74.3756 405.808 -134.542 374.994 -171.391C356.23 -193.837 331.982 -205.982 304.878 -206.511C256.531 -207.46 208.135 -171.152 175.656 -116.055Z" fill="url(#paint31_linear)"/>
        <path d="M373.084 90.5943C340.38 146.082 291.581 182.646 242.808 181.692C215.356 181.157 190.804 168.868 171.816 146.155C140.791 109.047 128.402 48.5332 138.676 -15.7202C155.834 -123.03 230.407 -209.143 304.907 -207.686C332.359 -207.151 356.909 -194.858 375.897 -172.144C406.921 -135.037 419.31 -74.5229 409.037 -10.2695C403.111 26.7878 390.331 61.3262 373.084 90.5943ZM175.656 -116.055C158.468 -86.8984 145.735 -52.4793 139.828 -15.534C129.61 48.3876 141.905 108.552 172.711 145.403C191.482 167.847 215.724 179.994 242.828 180.523C316.766 181.967 390.807 96.2977 407.877 -10.454C418.096 -74.3756 405.808 -134.542 374.994 -171.391C356.23 -193.837 331.982 -205.982 304.878 -206.511C256.531 -207.46 208.135 -171.152 175.656 -116.055Z" fill="url(#paint32_linear)"/>
        <path d="M386.745 84.8009C348.999 148.843 288.237 188.736 230.11 180.7C199.426 176.464 173.061 159.56 153.864 131.832C125.132 90.3268 116.3 28.7506 130.239 -32.8958C154.385 -139.669 238.435 -217.635 317.604 -206.696C348.282 -202.457 374.649 -185.558 393.843 -157.825C422.575 -116.32 431.407 -54.7442 417.469 6.90213C411.054 35.275 400.403 61.6204 386.745 84.8009ZM161.995 -110.245C148.383 -87.1539 137.779 -60.9165 131.382 -32.6331C117.515 28.6917 126.278 89.9275 154.827 131.166C173.834 158.618 199.92 175.346 230.265 179.541C287.92 187.51 348.211 147.868 385.717 84.2537C399.328 61.1629 409.933 34.9254 416.33 6.64203C430.199 -54.6871 421.434 -115.919 392.885 -157.157C373.878 -184.609 347.792 -201.337 317.447 -205.532C259.791 -213.501 199.496 -173.861 161.995 -110.245Z" fill="url(#paint33_linear)"/>
        <path d="M386.745 84.8009C348.999 148.843 288.237 188.736 230.11 180.7C199.426 176.464 173.061 159.56 153.864 131.832C125.132 90.3268 116.3 28.7506 130.239 -32.8958C154.385 -139.669 238.435 -217.635 317.604 -206.696C348.282 -202.457 374.649 -185.558 393.843 -157.825C422.575 -116.32 431.407 -54.7442 417.469 6.90213C411.054 35.275 400.403 61.6204 386.745 84.8009ZM161.995 -110.245C148.383 -87.1539 137.779 -60.9165 131.382 -32.6331C117.515 28.6917 126.278 89.9275 154.827 131.166C173.834 158.618 199.92 175.346 230.265 179.541C287.92 187.51 348.211 147.868 385.717 84.2537C399.328 61.1629 409.933 34.9254 416.33 6.64203C430.199 -54.6871 421.434 -115.919 392.885 -157.157C373.878 -184.609 347.792 -201.337 317.447 -205.532C259.791 -213.501 199.496 -173.861 161.995 -110.245Z" fill="url(#paint34_linear)"/>
        <path d="M401.117 81.389C358.516 153.655 284.294 195.196 216.659 178.079C182.372 169.406 154.238 147.166 135.293 113.762C109.277 67.8982 104.508 7.69587 122.205 -51.4005C153.754 -156.746 247.444 -225.236 331.051 -204.076C365.331 -195.401 393.465 -173.161 412.41 -139.757C438.426 -93.8932 443.195 -33.6909 425.496 25.4098C419.477 45.5312 411.176 64.3247 401.117 81.389ZM147.617 -106.812C137.597 -89.8127 129.336 -71.1184 123.334 -51.064C105.726 7.73239 110.459 67.5967 136.315 113.184C155.1 146.301 182.978 168.348 216.946 176.945C284.064 193.933 357.76 152.628 400.097 80.8174C410.118 63.8184 418.378 45.1241 424.381 25.0697C441.989 -33.7266 437.256 -93.5909 411.4 -139.178C392.614 -172.295 364.737 -194.342 330.773 -202.937C263.648 -219.923 189.948 -178.62 147.617 -106.812Z" fill="url(#paint35_linear)"/>
        <path d="M401.117 81.389C358.516 153.655 284.294 195.196 216.659 178.079C182.372 169.406 154.238 147.166 135.293 113.762C109.277 67.8982 104.508 7.69587 122.205 -51.4005C153.754 -156.746 247.444 -225.236 331.051 -204.076C365.331 -195.401 393.465 -173.161 412.41 -139.757C438.426 -93.8932 443.195 -33.6909 425.496 25.4098C419.477 45.5312 411.176 64.3247 401.117 81.389ZM147.617 -106.812C137.597 -89.8127 129.336 -71.1184 123.334 -51.064C105.726 7.73239 110.459 67.5967 136.315 113.184C155.1 146.301 182.978 168.348 216.946 176.945C284.064 193.933 357.76 152.628 400.097 80.8174C410.118 63.8184 418.378 45.1241 424.381 25.0697C441.989 -33.7266 437.256 -93.5909 411.4 -139.178C392.614 -172.295 364.737 -194.342 330.773 -202.937C263.648 -219.923 189.948 -178.62 147.617 -106.812Z" fill="url(#paint36_linear)"/>
        <path d="M415.923 80.7747C368.699 160.896 279.572 201.901 202.503 173.715C164.833 159.941 134.299 130.867 116.518 91.8426C94.3415 43.1808 93.6761 -16.2527 114.682 -71.2202C154.028 -174.165 257.447 -231.806 345.212 -199.71C382.881 -185.937 413.416 -156.862 431.195 -117.845C453.369 -69.1785 454.034 -9.74499 433.032 45.2181C428.234 57.7686 422.479 69.6542 415.923 80.7747ZM132.801 -106.181C126.274 -95.1082 120.552 -83.2906 115.777 -70.7975C94.8778 -16.1198 95.5389 42.9824 117.583 91.3607C135.237 130.093 165.535 158.951 202.905 172.614C279.431 200.597 367.966 159.818 414.914 80.1857C421.441 69.1131 427.163 57.2954 431.938 44.8024C452.835 -9.87099 452.176 -68.9775 430.13 -117.351C412.48 -156.081 382.182 -184.94 344.807 -198.604C268.279 -226.594 179.742 -185.811 132.801 -106.181Z" fill="url(#paint37_linear)"/>
        <path d="M415.923 80.7747C368.699 160.896 279.572 201.901 202.503 173.715C164.833 159.941 134.299 130.867 116.518 91.8426C94.3415 43.1808 93.6761 -16.2527 114.682 -71.2202C154.028 -174.165 257.447 -231.806 345.212 -199.71C382.881 -185.937 413.416 -156.862 431.195 -117.845C453.369 -69.1785 454.034 -9.74499 433.032 45.2181C428.234 57.7686 422.479 69.6542 415.923 80.7747ZM132.801 -106.181C126.274 -95.1082 120.552 -83.2906 115.777 -70.7975C94.8778 -16.1198 95.5389 42.9824 117.583 91.3607C135.237 130.093 165.535 158.951 202.905 172.614C279.431 200.597 367.966 159.818 414.914 80.1857C421.441 69.1131 427.163 57.2954 431.938 44.8024C452.835 -9.87099 452.176 -68.9775 430.13 -117.351C412.48 -156.081 382.182 -184.94 344.807 -198.604C268.279 -226.594 179.742 -185.811 132.801 -106.181Z" fill="url(#paint38_linear)"/>
        <path d="M430.978 83.1563C379.307 170.82 273.937 208.662 187.692 167.493C96.1114 123.771 60.2547 7.23397 107.763 -92.2847C130.775 -140.485 169.682 -177.56 217.309 -196.677C264.96 -215.803 315.638 -214.665 360.013 -193.48C404.383 -172.298 437.133 -133.603 452.23 -84.5284C467.32 -35.4698 462.956 18.0924 439.944 66.293C437.176 72.0949 434.175 77.7242 430.978 83.1563ZM117.841 -108.733C114.61 -103.251 111.6 -97.5977 108.821 -91.7785C61.591 7.15855 97.1993 122.991 188.199 166.435C273.883 207.339 378.601 169.688 429.967 82.5603C433.153 77.1569 436.128 71.5712 438.891 65.7894C461.775 17.8543 466.114 -35.4057 451.111 -84.184C436.114 -132.941 403.585 -171.382 359.514 -192.424C315.439 -213.461 265.096 -214.589 217.753 -195.587C176.139 -178.892 141.224 -148.4 117.841 -108.733Z" fill="url(#paint39_linear)"/>
        <path d="M430.978 83.1563C379.307 170.82 273.937 208.662 187.692 167.493C96.1114 123.771 60.2547 7.23397 107.763 -92.2847C130.775 -140.485 169.682 -177.56 217.309 -196.677C264.96 -215.803 315.638 -214.665 360.013 -193.48C404.383 -172.298 437.133 -133.603 452.23 -84.5284C467.32 -35.4698 462.956 18.0924 439.944 66.293C437.176 72.0949 434.175 77.7242 430.978 83.1563ZM117.841 -108.733C114.61 -103.251 111.6 -97.5977 108.821 -91.7785C61.591 7.15855 97.1993 122.991 188.199 166.435C273.883 207.339 378.601 169.688 429.967 82.5603C433.153 77.1569 436.128 71.5712 438.891 65.7894C461.775 17.8543 466.114 -35.4057 451.111 -84.184C436.114 -132.941 403.585 -171.382 359.514 -192.424C315.439 -213.461 265.096 -214.589 217.753 -195.587C176.139 -178.892 141.224 -148.4 117.841 -108.733Z" fill="url(#paint40_linear)"/>
        <path d="M446.148 88.569C390.147 183.569 267.294 215.297 172.29 159.294C77.2905 103.292 45.5619 -19.56 101.563 -114.56C157.567 -209.564 280.419 -241.292 375.419 -185.291C470.423 -129.287 502.152 -6.43508 446.148 88.569ZM102.574 -113.964C46.9016 -19.5219 78.4442 102.61 172.886 158.283C267.333 213.958 389.465 182.415 445.137 87.9731C500.809 -6.46891 469.269 -128.605 374.823 -184.28C280.381 -239.953 158.249 -208.41 102.574 -113.964Z" fill="url(#paint41_linear)"/>
        <path d="M446.148 88.569C390.147 183.569 267.294 215.297 172.29 159.294C77.2905 103.292 45.5619 -19.56 101.563 -114.56C157.567 -209.564 280.419 -241.292 375.419 -185.291C470.423 -129.287 502.152 -6.43508 446.148 88.569ZM102.574 -113.964C46.9016 -19.5219 78.4442 102.61 172.886 158.283C267.333 213.958 389.465 182.415 445.137 87.9731C500.809 -6.46891 469.269 -128.605 374.823 -184.28C280.381 -239.953 158.249 -208.41 102.574 -113.964Z" fill="url(#paint42_linear)"/>
    </g>
    <defs>
        <linearGradient id="paint0_linear" x1="18.5" y1="-0.000488409" x2="16.4561" y2="275.088" gradientUnits="userSpaceOnUse">
            <stop stop-color="#777187"/>
            <stop offset="1" stop-color="#777187" stop-opacity="0"/>
        </linearGradient>
        <linearGradient id="paint1_linear" x1="162.685" y1="55.4949" x2="385.571" y2="-101.487" gradientUnits="userSpaceOnUse">
            <stop stop-color="#4010FF"/>
            <stop offset="1" stop-color="#67FFD5"/>
        </linearGradient>
        <linearGradient id="paint2_linear" x1="121.545" y1="-10.6695" x2="298.766" y2="-116.081" gradientUnits="userSpaceOnUse">
            <stop stop-color="white"/>
            <stop offset="1" stop-color="white" stop-opacity="0"/>
        </linearGradient>
        <linearGradient id="paint3_linear" x1="157.967" y1="61.8682" x2="397.163" y2="-99.5188" gradientUnits="userSpaceOnUse">
            <stop stop-color="#4010FF"/>
            <stop offset="1" stop-color="#67FFD5"/>
        </linearGradient>
        <linearGradient id="paint4_linear" x1="117.269" y1="-6.89953" x2="306.671" y2="-113.87" gradientUnits="userSpaceOnUse">
            <stop stop-color="white"/>
            <stop offset="1" stop-color="white" stop-opacity="0"/>
        </linearGradient>
        <linearGradient id="paint5_linear" x1="153.382" y1="68.399" x2="408.896" y2="-96.4301" gradientUnits="userSpaceOnUse">
            <stop stop-color="#4010FF"/>
            <stop offset="1" stop-color="#67FFD5"/>
        </linearGradient>
        <linearGradient id="paint6_linear" x1="113.33" y1="-2.87482" x2="314.74" y2="-110.61" gradientUnits="userSpaceOnUse">
            <stop stop-color="white"/>
            <stop offset="1" stop-color="white" stop-opacity="0"/>
        </linearGradient>
        <linearGradient id="paint7_linear" x1="148.924" y1="74.9933" x2="420.553" y2="-92.35" gradientUnits="userSpaceOnUse">
            <stop stop-color="#4010FF"/>
            <stop offset="1" stop-color="#67FFD5"/>
        </linearGradient>
        <linearGradient id="paint8_linear" x1="109.66" y1="1.29919" x2="322.749" y2="-106.478" gradientUnits="userSpaceOnUse">
            <stop stop-color="white"/>
            <stop offset="1" stop-color="white" stop-opacity="0"/>
        </linearGradient>
        <linearGradient id="paint9_linear" x1="144.705" y1="81.6396" x2="432.047" y2="-87.0572" gradientUnits="userSpaceOnUse">
            <stop stop-color="#4010FF"/>
            <stop offset="1" stop-color="#67FFD5"/>
        </linearGradient>
        <linearGradient id="paint10_linear" x1="106.434" y1="5.67465" x2="330.694" y2="-101.261" gradientUnits="userSpaceOnUse">
            <stop stop-color="white"/>
            <stop offset="1" stop-color="white" stop-opacity="0"/>
        </linearGradient>
        <linearGradient id="paint11_linear" x1="140.74" y1="88.1262" x2="442.948" y2="-80.9384" gradientUnits="userSpaceOnUse">
            <stop stop-color="#4010FF"/>
            <stop offset="1" stop-color="#67FFD5"/>
        </linearGradient>
        <linearGradient id="paint12_linear" x1="103.556" y1="10.0434" x2="338.187" y2="-95.3855" gradientUnits="userSpaceOnUse">
            <stop stop-color="white"/>
            <stop offset="1" stop-color="white" stop-opacity="0"/>
        </linearGradient>
        <linearGradient id="paint13_linear" x1="136.893" y1="94.592" x2="453.454" y2="-74.0093" gradientUnits="userSpaceOnUse">
            <stop stop-color="#4010FF"/>
            <stop offset="1" stop-color="#67FFD5"/>
        </linearGradient>
        <linearGradient id="paint14_linear" x1="100.872" y1="14.4646" x2="345.329" y2="-88.89" gradientUnits="userSpaceOnUse">
            <stop stop-color="white"/>
            <stop offset="1" stop-color="white" stop-opacity="0"/>
        </linearGradient>
        <linearGradient id="paint15_linear" x1="133.213" y1="100.821" x2="463.213" y2="-66.7294" gradientUnits="userSpaceOnUse">
            <stop stop-color="#4010FF"/>
            <stop offset="1" stop-color="#67FFD5"/>
        </linearGradient>
        <linearGradient id="paint16_linear" x1="98.3368" y1="18.7426" x2="351.84" y2="-82.2247" gradientUnits="userSpaceOnUse">
            <stop stop-color="white"/>
            <stop offset="1" stop-color="white" stop-opacity="0"/>
        </linearGradient>
        <linearGradient id="paint17_linear" x1="129.686" y1="106.722" x2="472.131" y2="-59.5187" gradientUnits="userSpaceOnUse">
            <stop stop-color="#4010FF"/>
            <stop offset="1" stop-color="#67FFD5"/>
        </linearGradient>
        <linearGradient id="paint18_linear" x1="95.8588" y1="22.765" x2="357.64" y2="-75.7765" gradientUnits="userSpaceOnUse">
            <stop stop-color="white"/>
            <stop offset="1" stop-color="white" stop-opacity="0"/>
        </linearGradient>
        <linearGradient id="paint19_linear" x1="126.248" y1="112.185" x2="480.143" y2="-52.9677" gradientUnits="userSpaceOnUse">
            <stop stop-color="#4010FF"/>
            <stop offset="1" stop-color="#67FFD5"/>
        </linearGradient>
        <linearGradient id="paint20_linear" x1="93.2638" y1="26.383" x2="362.647" y2="-70.0726" gradientUnits="userSpaceOnUse">
            <stop stop-color="white"/>
            <stop offset="1" stop-color="white" stop-opacity="0"/>
        </linearGradient>
        <linearGradient id="paint21_linear" x1="122.838" y1="117.097" x2="487.268" y2="-47.7656" gradientUnits="userSpaceOnUse">
            <stop stop-color="#4010FF"/>
            <stop offset="1" stop-color="#67FFD5"/>
        </linearGradient>
        <linearGradient id="paint22_linear" x1="90.3696" y1="29.4329" x2="366.851" y2="-65.7118" gradientUnits="userSpaceOnUse">
            <stop stop-color="white"/>
            <stop offset="1" stop-color="white" stop-opacity="0"/>
        </linearGradient>
        <linearGradient id="paint23_linear" x1="119.354" y1="121.357" x2="493.57" y2="-44.6768" gradientUnits="userSpaceOnUse">
            <stop stop-color="#4010FF"/>
            <stop offset="1" stop-color="#67FFD5"/>
        </linearGradient>
        <linearGradient id="paint24_linear" x1="86.9295" y1="31.7458" x2="370.252" y2="-63.3539" gradientUnits="userSpaceOnUse">
            <stop stop-color="white"/>
            <stop offset="1" stop-color="white" stop-opacity="0"/>
        </linearGradient>
        <linearGradient id="paint25_linear" x1="115.695" y1="124.823" x2="499.081" y2="-44.5165" gradientUnits="userSpaceOnUse">
            <stop stop-color="#4010FF"/>
            <stop offset="1" stop-color="#67FFD5"/>
        </linearGradient>
        <linearGradient id="paint26_linear" x1="82.6882" y1="33.1075" x2="372.816" y2="-63.7143" gradientUnits="userSpaceOnUse">
            <stop stop-color="white"/>
            <stop offset="1" stop-color="white" stop-opacity="0"/>
        </linearGradient>
        <linearGradient id="paint27_linear" x1="111.768" y1="127.403" x2="503.762" y2="-47.9455" gradientUnits="userSpaceOnUse">
            <stop stop-color="#4010FF"/>
            <stop offset="1" stop-color="#67FFD5"/>
        </linearGradient>
        <linearGradient id="paint28_linear" x1="77.4035" y1="33.3588" x2="374.442" y2="-67.3968" gradientUnits="userSpaceOnUse">
            <stop stop-color="white"/>
            <stop offset="1" stop-color="white" stop-opacity="0"/>
        </linearGradient>
        <linearGradient id="paint29_linear" x1="107.465" y1="128.988" x2="507.434" y2="-55.4329" gradientUnits="userSpaceOnUse">
            <stop stop-color="#4010FF"/>
            <stop offset="1" stop-color="#67FFD5"/>
        </linearGradient>
        <linearGradient id="paint30_linear" x1="70.8347" y1="32.3189" x2="374.896" y2="-74.8965" gradientUnits="userSpaceOnUse">
            <stop stop-color="white"/>
            <stop offset="1" stop-color="white" stop-opacity="0"/>
        </linearGradient>
        <linearGradient id="paint31_linear" x1="102.714" y1="129.518" x2="509.747" y2="-67.0718" gradientUnits="userSpaceOnUse">
            <stop stop-color="#4010FF"/>
            <stop offset="1" stop-color="#67FFD5"/>
        </linearGradient>
        <linearGradient id="paint32_linear" x1="62.81" y1="29.8771" x2="373.793" y2="-86.4329" gradientUnits="userSpaceOnUse">
            <stop stop-color="white"/>
            <stop offset="1" stop-color="white" stop-opacity="0"/>
        </linearGradient>
        <linearGradient id="paint33_linear" x1="97.4635" y1="128.974" x2="510.243" y2="-82.5195" gradientUnits="userSpaceOnUse">
            <stop stop-color="#4010FF"/>
            <stop offset="1" stop-color="#67FFD5"/>
        </linearGradient>
        <linearGradient id="paint34_linear" x1="53.2289" y1="25.9819" x2="370.639" y2="-101.885" gradientUnits="userSpaceOnUse">
            <stop stop-color="white"/>
            <stop offset="1" stop-color="white" stop-opacity="0"/>
        </linearGradient>
        <linearGradient id="paint35_linear" x1="91.6922" y1="127.36" x2="508.449" y2="-101.106" gradientUnits="userSpaceOnUse">
            <stop stop-color="#4010FF"/>
            <stop offset="1" stop-color="#67FFD5"/>
        </linearGradient>
        <linearGradient id="paint36_linear" x1="42.0563" y1="20.6256" x2="364.906" y2="-120.851" gradientUnits="userSpaceOnUse">
            <stop stop-color="white"/>
            <stop offset="1" stop-color="white" stop-opacity="0"/>
        </linearGradient>
        <linearGradient id="paint37_linear" x1="85.4387" y1="124.646" x2="503.905" y2="-121.993" gradientUnits="userSpaceOnUse">
            <stop stop-color="#4010FF"/>
            <stop offset="1" stop-color="#67FFD5"/>
        </linearGradient>
        <linearGradient id="paint38_linear" x1="29.3389" y1="13.7958" x2="356.074" y2="-142.75" gradientUnits="userSpaceOnUse">
            <stop stop-color="white"/>
            <stop offset="1" stop-color="white" stop-opacity="0"/>
        </linearGradient>
        <linearGradient id="paint39_linear" x1="78.5575" y1="121.137" x2="496.875" y2="-143.992" gradientUnits="userSpaceOnUse">
            <stop stop-color="#4010FF"/>
            <stop offset="1" stop-color="#67FFD5"/>
        </linearGradient>
        <linearGradient id="paint40_linear" x1="15.015" y1="5.72918" x2="344.156" y2="-166.594" gradientUnits="userSpaceOnUse">
            <stop stop-color="white"/>
            <stop offset="1" stop-color="white" stop-opacity="0"/>
        </linearGradient>
        <linearGradient id="paint41_linear" x1="71.098" y1="116.873" x2="487.412" y2="-166.289" gradientUnits="userSpaceOnUse">
            <stop stop-color="#4010FF"/>
            <stop offset="1" stop-color="#67FFD5"/>
        </linearGradient>
        <linearGradient id="paint42_linear" x1="-0.808785" y1="-3.50784" x2="329.101" y2="-191.657" gradientUnits="userSpaceOnUse">
            <stop stop-color="white"/>
            <stop offset="1" stop-color="white" stop-opacity="0"/>
        </linearGradient>
    </defs>
</svg>
