<svg width="513" height="195" viewBox="0 0 513 195" fill="none" xmlns="http://www.w3.org/2000/svg">
    <g opacity="0.3">
        <mask id="mask0" mask-type="alpha" maskUnits="userSpaceOnUse" x="0" y="-1" width="513" height="196">
            <rect x="0.5" y="0.499512" width="512" height="194" rx="24.5" fill="white"/>
            <rect x="0.5" y="0.499512" width="512" height="194" rx="24.5" stroke="url(#paint0_linear)"/>
            <rect x="0.5" y="0.499512" width="512" height="194" rx="24.5" stroke="url(#paint1_linear)"/>
        </mask>
        <g mask="url(#mask0)">
            <path d="M564.273 331.61C560.391 338.195 555.465 342.348 549.638 343.787C535.332 347.326 516.905 333.881 499.076 306.9C464.287 254.244 440.607 164.844 446.29 107.62C448.885 81.4932 457.328 65.3671 470.065 62.218C484.371 58.6784 502.797 72.1243 520.626 99.1048C555.415 151.761 579.096 241.161 573.413 298.385C572.011 312.567 568.876 323.801 564.273 331.61ZM446.878 107.679L447.461 107.735C441.801 164.731 465.396 253.788 500.062 306.254C517.597 332.797 535.567 346.062 549.362 342.65C561.585 339.626 569.713 323.866 572.255 298.266C577.916 241.27 554.321 152.213 519.655 99.7473C502.12 73.2044 484.15 59.9398 470.354 63.3513C458.134 66.3707 450.004 82.1352 447.461 107.735L446.878 107.679Z" fill="url(#paint2_linear)"/>
            <path d="M564.273 331.61C560.391 338.195 555.465 342.348 549.638 343.787C535.332 347.326 516.905 333.881 499.076 306.9C464.287 254.244 440.607 164.844 446.29 107.62C448.885 81.4932 457.328 65.3671 470.065 62.218C484.371 58.6784 502.797 72.1243 520.626 99.1048C555.415 151.761 579.096 241.161 573.413 298.385C572.011 312.567 568.876 323.801 564.273 331.61ZM446.878 107.679L447.461 107.735C441.801 164.731 465.396 253.788 500.062 306.254C517.597 332.797 535.567 346.062 549.362 342.65C561.585 339.626 569.713 323.866 572.255 298.266C577.916 241.27 554.321 152.213 519.655 99.7473C502.12 73.2044 484.15 59.9398 470.354 63.3513C458.134 66.3707 450.004 82.1352 447.461 107.735L446.878 107.679Z" fill="url(#paint3_linear)"/>
            <path d="M562.806 337.116C558.27 344.811 552.536 349.488 545.837 350.752C530.167 353.717 510.812 337.821 492.726 307.143C458.611 249.27 438.33 155.509 447.513 98.1344C451.547 72.9326 460.913 57.7024 473.878 55.2516C489.548 52.2871 508.902 68.1826 526.988 98.8611C561.104 156.734 581.385 250.495 572.202 307.87C570.251 320.054 567.053 329.913 562.806 337.116ZM457.909 69.4721C453.745 76.5357 450.603 86.2574 448.67 98.3232C439.52 155.471 459.733 248.881 493.738 306.553C511.555 336.78 530.466 352.472 545.621 349.604C558.065 347.251 567.094 332.362 571.047 307.688C580.196 250.54 559.977 157.132 525.979 99.458C508.161 69.2311 489.25 53.5386 474.095 56.4072C467.733 57.607 462.263 62.086 457.909 69.4721Z" fill="url(#paint4_linear)"/>
            <path d="M562.806 337.116C558.27 344.811 552.536 349.488 545.837 350.752C530.167 353.717 510.812 337.821 492.726 307.143C458.611 249.27 438.33 155.509 447.513 98.1344C451.547 72.9326 460.913 57.7024 473.878 55.2516C489.548 52.2871 508.902 68.1826 526.988 98.8611C561.104 156.734 581.385 250.495 572.202 307.87C570.251 320.054 567.053 329.913 562.806 337.116ZM457.909 69.4721C453.745 76.5357 450.603 86.2574 448.67 98.3232C439.52 155.471 459.733 248.881 493.738 306.553C511.555 336.78 530.466 352.472 545.621 349.604C558.065 347.251 567.094 332.362 571.047 307.688C580.196 250.54 559.977 157.132 525.979 99.458C508.161 69.2311 489.25 53.5386 474.095 56.4072C467.733 57.607 462.263 62.086 457.909 69.4721Z" fill="url(#paint5_linear)"/>
            <path d="M561.256 342.039C555.913 351.103 549.188 356.405 541.456 357.419C524.319 359.665 504.085 341.138 485.949 306.59C452.833 243.505 436.406 145.744 449.329 88.6603C454.787 64.5501 465.061 50.3192 478.253 48.5893C495.39 46.3429 515.626 64.8662 533.76 99.4187C566.875 162.503 583.302 260.264 570.379 317.348C568.122 327.333 565.034 335.629 561.256 342.039ZM459.47 64.545C455.758 70.8417 452.716 79.0305 450.474 88.9186C437.606 145.77 453.988 243.17 486.991 306.047C504.886 340.136 524.685 358.437 541.307 356.257C553.977 354.595 563.898 340.685 569.241 317.088C582.109 260.236 565.73 162.832 532.724 99.9594C514.829 65.8701 495.03 47.5698 478.408 49.7497C471.044 50.7169 464.615 55.8167 459.47 64.545Z" fill="url(#paint6_linear)"/>
            <path d="M561.256 342.039C555.913 351.103 549.188 356.405 541.456 357.419C524.319 359.665 504.085 341.138 485.949 306.59C452.833 243.505 436.406 145.744 449.329 88.6603C454.787 64.5501 465.061 50.3192 478.253 48.5893C495.39 46.3429 515.626 64.8662 533.76 99.4187C566.875 162.503 583.302 260.264 570.379 317.348C568.122 327.333 565.034 335.629 561.256 342.039ZM459.47 64.545C455.758 70.8417 452.716 79.0305 450.474 88.9186C437.606 145.77 453.988 243.17 486.991 306.047C504.886 340.136 524.685 358.437 541.307 356.257C553.977 354.595 563.898 340.685 569.241 317.088C582.109 260.236 565.73 162.832 532.724 99.9594C514.829 65.8701 495.03 47.5698 478.408 49.7497C471.044 50.7169 464.615 55.8167 459.47 64.545Z" fill="url(#paint7_linear)"/>
            <path d="M559.63 346.548C553.352 357.198 545.519 363.055 536.474 363.707C517.75 365.059 496.717 343.723 478.772 305.165C447.008 236.918 434.897 135.583 451.778 79.2644C458.731 56.0648 469.607 43.2814 483.231 42.2934C501.955 40.9412 522.988 62.277 540.933 100.835C572.698 169.089 584.81 270.424 567.927 326.736C565.59 334.536 562.81 341.153 559.63 346.548ZM461.088 60.044C457.959 65.3516 455.218 71.8854 452.904 79.6053C436.094 135.684 448.177 236.65 479.838 304.672C497.57 342.764 518.178 363.855 536.394 362.538C549.488 361.59 560.007 349.095 566.81 326.4C583.62 270.322 571.537 169.355 539.876 101.333C522.144 63.2413 501.536 42.1504 483.32 43.4673C474.678 44.0922 467.158 49.747 461.088 60.044Z" fill="url(#paint8_linear)"/>
            <path d="M559.63 346.548C553.352 357.198 545.519 363.055 536.474 363.707C517.75 365.059 496.717 343.723 478.772 305.165C447.008 236.918 434.897 135.583 451.778 79.2644C458.731 56.0648 469.607 43.2814 483.231 42.2934C501.955 40.9412 522.988 62.277 540.933 100.835C572.698 169.089 584.81 270.424 567.927 326.736C565.59 334.536 562.81 341.153 559.63 346.548ZM461.088 60.044C457.959 65.3516 455.218 71.8854 452.904 79.6053C436.094 135.684 448.177 236.65 479.838 304.672C497.57 342.764 518.178 363.855 536.394 362.538C549.488 361.59 560.007 349.095 566.81 326.4C583.62 270.322 571.537 169.355 539.876 101.333C522.144 63.2413 501.536 42.1504 483.32 43.4673C474.678 44.0922 467.158 49.747 461.088 60.044Z" fill="url(#paint9_linear)"/>
            <path d="M558.179 349.967C550.663 362.717 541.372 369.424 530.853 369.547C510.435 369.789 488.7 345.462 471.223 302.812C441.18 229.495 433.864 125.074 454.908 70.0411L455.454 70.2511L454.908 70.0411C463.248 48.2343 474.987 36.6172 488.858 36.4557C509.276 36.2138 531.011 60.5414 548.487 103.191C578.531 176.508 585.847 280.929 564.803 335.962C562.787 341.233 560.573 345.906 558.179 349.967ZM462.548 56.6235C460.187 60.6281 457.999 65.2456 456.006 70.4593C435.052 125.251 442.36 229.286 472.309 302.365C489.343 343.932 511.22 368.608 530.839 368.376C544.186 368.217 555.55 356.867 563.704 335.544C584.662 280.748 577.351 176.717 547.402 103.638C530.368 62.0707 508.491 37.3954 488.872 37.6267C478.789 37.7484 469.838 44.2567 462.548 56.6235Z" fill="url(#paint10_linear)"/>
            <path d="M558.179 349.967C550.663 362.717 541.372 369.424 530.853 369.547C510.435 369.789 488.7 345.462 471.223 302.812C441.18 229.495 433.864 125.074 454.908 70.0411L455.454 70.2511L454.908 70.0411C463.248 48.2343 474.987 36.6172 488.858 36.4557C509.276 36.2138 531.011 60.5414 548.487 103.191C578.531 176.508 585.847 280.929 564.803 335.962C562.787 341.233 560.573 345.906 558.179 349.967ZM462.548 56.6235C460.187 60.6281 457.999 65.2456 456.006 70.4593C435.052 125.251 442.36 229.286 472.309 302.365C489.343 343.932 511.22 368.608 530.839 368.376C544.186 368.217 555.55 356.867 563.704 335.544C584.662 280.748 577.351 176.717 547.402 103.638C530.368 62.0707 508.491 37.3954 488.872 37.6267C478.789 37.7484 469.838 44.2567 462.548 56.6235Z" fill="url(#paint11_linear)"/>
            <path d="M557.034 352.357C547.961 367.748 536.83 375.495 524.542 374.864C502.659 373.737 479.768 345.551 463.318 299.467C435.38 221.214 433.332 114.272 458.746 61.07C468.444 40.763 481.041 30.4206 495.17 31.1454C517.053 32.2724 539.944 60.4576 556.394 106.542C584.33 184.788 586.383 291.732 560.969 344.935C559.705 347.577 558.393 350.051 557.034 352.357ZM459.272 61.3218L459.799 61.5736C434.5 114.532 436.574 221.072 464.42 299.071C480.707 344.696 503.205 372.591 524.605 373.691C538.226 374.392 550.433 364.272 559.908 344.433C585.208 291.474 583.134 184.934 555.287 106.935C539.001 61.3108 516.503 33.4158 495.107 32.3179C481.487 31.6169 469.279 41.7369 459.801 61.5806L459.272 61.3218Z" fill="url(#paint12_linear)"/>
            <path d="M557.034 352.357C547.961 367.748 536.83 375.495 524.542 374.864C502.659 373.737 479.768 345.551 463.318 299.467C435.38 221.214 433.332 114.272 458.746 61.07C468.444 40.763 481.041 30.4206 495.17 31.1454C517.053 32.2724 539.944 60.4576 556.394 106.542C584.33 184.788 586.383 291.732 560.969 344.935C559.705 347.577 558.393 350.051 557.034 352.357ZM459.272 61.3218L459.799 61.5736C434.5 114.532 436.574 221.072 464.42 299.071C480.707 344.696 503.205 372.591 524.605 373.691C538.226 374.392 550.433 364.272 559.908 344.433C585.208 291.474 583.134 184.934 555.287 106.935C539.001 61.3108 516.503 33.4158 495.107 32.3179C481.487 31.6169 469.279 41.7369 459.801 61.5806L459.272 61.3218Z" fill="url(#paint13_linear)"/>
            <path d="M556.409 353.539C556.403 353.548 556.398 353.556 556.393 353.565C545.361 372.27 531.91 381.251 517.491 379.545C493.762 376.737 470.43 345.156 455.09 295.069C429.671 212.095 433.355 103.277 463.301 52.4767C463.306 52.468 463.312 52.4593 463.317 52.4505C474.349 33.746 487.799 24.7641 502.219 26.4705C525.948 29.2783 549.277 60.8635 564.62 110.946C590.042 193.916 586.355 302.738 556.409 353.539ZM464.311 53.0657C434.508 103.622 430.876 212.013 456.211 294.72C471.416 344.352 494.377 375.625 517.633 378.378C531.553 380.025 544.607 371.238 555.385 352.965C555.387 352.96 555.395 352.947 555.4 352.939C585.207 302.384 588.838 193.987 563.499 111.284C548.295 61.6527 525.334 30.3788 502.078 27.6263C488.158 25.9794 475.104 34.7664 464.326 53.0396C464.321 53.0483 464.316 53.057 464.311 53.0657Z" fill="url(#paint14_linear)"/>
            <path d="M556.409 353.539C556.403 353.548 556.398 353.556 556.393 353.565C545.361 372.27 531.91 381.251 517.491 379.545C493.762 376.737 470.43 345.156 455.09 295.069C429.671 212.095 433.355 103.277 463.301 52.4767C463.306 52.468 463.312 52.4593 463.317 52.4505C474.349 33.746 487.799 24.7641 502.219 26.4705C525.948 29.2783 549.277 60.8635 564.62 110.946C590.042 193.916 586.355 302.738 556.409 353.539ZM464.311 53.0657C434.508 103.622 430.876 212.013 456.211 294.72C471.416 344.352 494.377 375.625 517.633 378.378C531.553 380.025 544.607 371.238 555.385 352.965C555.387 352.96 555.395 352.947 555.4 352.939C585.207 302.384 588.838 193.987 563.499 111.284C548.295 61.6527 525.334 30.3788 502.078 27.6263C488.158 25.9794 475.104 34.7664 464.326 53.0396C464.321 53.0483 464.316 53.057 464.311 53.0657Z" fill="url(#paint15_linear)"/>
            <path d="M556.446 353.485C554.72 356.413 552.926 359.166 551.054 361.745C538.698 378.77 524.378 386.288 509.638 383.483C484.02 378.61 460.447 343.493 446.577 289.558C424.082 202.071 433.991 92.0377 468.65 44.268C481.006 27.2422 495.326 19.7241 510.067 22.5297C535.682 27.4067 559.257 62.519 573.128 116.455C594.407 199.22 586.688 302.171 556.446 353.485ZM464.252 53.1544C434.156 104.208 426.508 206.76 447.72 289.263C461.471 342.752 484.702 377.544 509.861 382.328C524.12 385.044 538.034 377.686 550.107 361.051C584.585 313.538 594.41 203.937 571.995 116.744C558.243 63.2539 535.013 28.4625 509.853 23.6782C495.595 20.9625 481.68 28.3205 469.608 44.9554C467.748 47.5117 465.963 50.2522 464.252 53.1544Z" fill="url(#paint16_linear)"/>
            <path d="M556.446 353.485C554.72 356.413 552.926 359.166 551.054 361.745C538.698 378.77 524.378 386.288 509.638 383.483C484.02 378.61 460.447 343.493 446.577 289.558C424.082 202.071 433.991 92.0377 468.65 44.268C481.006 27.2422 495.326 19.7241 510.067 22.5297C535.682 27.4067 559.257 62.519 573.128 116.455C594.407 199.22 586.688 302.171 556.446 353.485ZM464.252 53.1544C434.156 104.208 426.508 206.76 447.72 289.263C461.471 342.752 484.702 377.544 509.861 382.328C524.12 385.044 538.034 377.686 550.107 361.051C584.585 313.538 594.41 203.937 571.995 116.744C558.243 63.2539 535.013 28.4625 509.853 23.6782C495.595 20.9625 481.68 28.3205 469.608 44.9554C467.748 47.5117 465.963 50.2522 464.252 53.1544Z" fill="url(#paint17_linear)"/>
            <path d="M557.385 352.059C553.532 358.596 549.376 364.401 544.923 369.375C531.232 384.662 516.01 390.592 500.907 386.539C473.418 379.154 449.838 340.404 437.834 282.883C418.706 191.198 435.289 80.7304 474.792 36.6378C488.483 21.3506 503.705 15.4209 518.808 19.4738C546.298 26.859 569.878 65.6089 581.882 123.13C598.849 204.475 587.707 300.611 557.385 352.059ZM463.292 54.6025C433.125 105.778 422.063 201.551 438.982 282.638C450.887 339.719 474.152 378.136 501.208 385.401C515.852 389.336 530.671 383.521 544.048 368.589C548.463 363.658 552.595 357.885 556.417 351.401C586.589 300.228 597.646 204.453 580.727 123.365C568.815 66.286 545.557 27.8668 518.501 20.6022C503.857 16.6672 489.038 22.4819 475.661 37.4145C471.25 42.3476 467.112 48.1228 463.292 54.6025Z" fill="url(#paint18_linear)"/>
            <path d="M557.385 352.059C553.532 358.596 549.376 364.401 544.923 369.375C531.232 384.662 516.01 390.592 500.907 386.539C473.418 379.154 449.838 340.404 437.834 282.883C418.706 191.198 435.289 80.7304 474.792 36.6378C488.483 21.3506 503.705 15.4209 518.808 19.4738C546.298 26.859 569.878 65.6089 581.882 123.13C598.849 204.475 587.707 300.611 557.385 352.059ZM463.292 54.6025C433.125 105.778 422.063 201.551 438.982 282.638C450.887 339.719 474.152 378.136 501.208 385.401C515.852 389.336 530.671 383.521 544.048 368.589C548.463 363.658 552.595 357.885 556.417 351.401C586.589 300.228 597.646 204.453 580.727 123.365C568.815 66.286 545.557 27.8668 518.501 20.6022C503.857 16.6672 489.038 22.4819 475.661 37.4145C471.25 42.3476 467.112 48.1228 463.292 54.6025Z" fill="url(#paint19_linear)"/>
            <path d="M559.524 349.098C553.056 360.07 545.84 369.304 537.975 376.341C522.898 389.825 506.72 394.04 491.194 388.534C461.916 378.145 438.63 335.699 428.892 274.992C413.577 179.478 437.282 69.4211 481.737 29.6685C496.814 16.1845 512.991 11.9694 528.518 17.4756C557.795 27.8642 581.081 70.3102 590.82 131.017C603.423 209.625 589.597 298.084 559.524 349.098ZM461.139 57.5668C431.224 108.315 417.486 196.445 430.052 274.807C439.718 335.078 462.72 377.18 491.588 387.427C506.684 392.786 522.458 388.649 537.196 375.471C581.388 335.945 604.925 226.37 589.664 131.205C579.996 70.9268 556.994 28.8247 528.128 18.5847C513.032 13.2261 497.258 17.3626 482.524 30.5437C474.713 37.5186 467.554 46.6859 461.139 57.5668Z" fill="url(#paint20_linear)"/>
            <path d="M559.524 349.098C553.056 360.07 545.84 369.304 537.975 376.341C522.898 389.825 506.72 394.04 491.194 388.534C461.916 378.145 438.63 335.699 428.892 274.992C413.577 179.478 437.282 69.4211 481.737 29.6685C496.814 16.1845 512.991 11.9694 528.518 17.4756C557.795 27.8642 581.081 70.3102 590.82 131.017C603.423 209.625 589.597 298.084 559.524 349.098ZM461.139 57.5668C431.224 108.315 417.486 196.445 430.052 274.807C439.718 335.078 462.72 377.18 491.588 387.427C506.684 392.786 522.458 388.649 537.196 375.471C581.388 335.945 604.925 226.37 589.664 131.205C579.996 70.9268 556.994 28.8247 528.128 18.5847C513.032 13.2261 497.258 17.3626 482.524 30.5437C474.713 37.5186 467.554 46.6859 461.139 57.5668Z" fill="url(#paint21_linear)"/>
            <path d="M563.175 344.509C553.537 360.859 542.424 373.954 530.198 382.531C513.642 394.151 496.421 396.471 480.403 389.248C449.545 375.326 426.894 329.192 419.817 265.843C408.763 166.928 440.028 58.1982 489.512 23.4711C506.068 11.8512 523.289 9.53134 539.307 16.7541C570.166 30.676 592.816 76.8105 599.893 140.159C608.217 214.641 592.546 294.684 563.175 344.509ZM457.488 62.1374C428.266 111.709 412.684 191.464 420.982 265.72C428.011 328.652 450.407 374.431 480.885 388.182C496.507 395.23 513.327 392.943 529.523 381.575C578.694 347.069 609.738 238.825 598.726 140.287C591.692 77.3518 569.299 31.5684 538.818 17.8223C523.197 10.7743 506.377 13.0608 490.181 24.4288C478.067 32.9362 467.047 45.9228 457.488 62.1374Z" fill="url(#paint22_linear)"/>
            <path d="M563.175 344.509C553.537 360.859 542.424 373.954 530.198 382.531C513.642 394.151 496.421 396.471 480.403 389.248C449.545 375.326 426.894 329.192 419.817 265.843C408.763 166.928 440.028 58.1982 489.512 23.4711C506.068 11.8512 523.289 9.53134 539.307 16.7541C570.166 30.676 592.816 76.8105 599.893 140.159C608.217 214.641 592.546 294.684 563.175 344.509ZM457.488 62.1374C428.266 111.709 412.684 191.464 420.982 265.72C428.011 328.652 450.407 374.431 480.885 388.182C496.507 395.23 513.327 392.943 529.523 381.575C578.694 347.069 609.738 238.825 598.726 140.287C591.692 77.3518 569.299 31.5684 538.818 17.8223C523.197 10.7743 506.377 13.0608 490.181 24.4288C478.067 32.9362 467.047 45.9228 457.488 62.1374Z" fill="url(#paint23_linear)"/>
            <path d="M568.611 338.337C555.207 361.075 539.201 378.486 521.588 387.844C503.399 397.503 485.018 397.706 468.435 388.424C436.319 370.45 414.722 320.726 410.663 255.416C404.334 153.573 443.568 47.1445 498.124 18.1671C516.313 8.50822 534.691 8.30914 551.277 17.587C583.393 35.5617 604.99 85.2856 609.05 150.595C613.337 219.563 596.726 290.643 568.611 338.337ZM452.064 68.2827C424.087 115.741 407.557 186.576 411.833 255.343C415.868 320.256 437.243 369.62 469.009 387.401C485.23 396.481 503.219 396.275 521.041 386.811C575.23 358.028 614.186 252.1 607.883 150.671C603.846 85.7621 582.473 36.3939 550.707 18.6133C534.487 9.53307 516.497 9.73868 498.676 19.203C481.223 28.4684 465.354 45.7365 452.064 68.2827Z" fill="url(#paint24_linear)"/>
            <path d="M568.611 338.337C555.207 361.075 539.201 378.486 521.588 387.844C503.399 397.503 485.018 397.706 468.435 388.424C436.319 370.45 414.722 320.726 410.663 255.416C404.334 153.573 443.568 47.1445 498.124 18.1671C516.313 8.50822 534.691 8.30914 551.277 17.587C583.393 35.5617 604.99 85.2856 609.05 150.595C613.337 219.563 596.726 290.643 568.611 338.337ZM452.064 68.2827C424.087 115.741 407.557 186.576 411.833 255.343C415.868 320.256 437.243 369.62 469.009 387.401C485.23 396.481 503.219 396.275 521.041 386.811C575.23 358.028 614.186 252.1 607.883 150.671C603.846 85.7621 582.473 36.3939 550.707 18.6133C534.487 9.53307 516.497 9.73868 498.676 19.203C481.223 28.4684 465.354 45.7365 452.064 68.2827Z" fill="url(#paint25_linear)"/>
            <path d="M575.997 330.817C558.273 360.884 536.182 383.058 512.134 392.128C492.102 399.685 472.41 397.46 455.196 385.692C422.299 363.205 402.221 310.108 401.492 243.65C400.345 139.441 447.935 36.3592 507.575 13.867C527.608 6.31055 547.3 8.53554 564.513 20.3035C597.41 42.7903 617.489 95.8876 618.217 162.346C618.9 224.538 602.227 286.322 575.997 330.817ZM444.697 75.7589C418.588 120.049 401.987 181.63 402.669 243.645C403.39 309.717 423.278 362.461 455.859 384.726C472.744 396.265 492.06 398.451 511.722 391.034C570.939 368.703 618.188 266.119 617.044 162.365C616.318 96.2897 596.435 43.5483 563.852 21.2759C546.967 9.73705 527.649 7.55602 507.989 14.9682C484.166 23.9542 462.275 45.9399 444.697 75.7589Z" fill="url(#paint26_linear)"/>
            <path d="M575.997 330.817C558.273 360.884 536.182 383.058 512.134 392.128C492.102 399.685 472.41 397.46 455.196 385.692C422.299 363.205 402.221 310.108 401.492 243.65C400.345 139.441 447.935 36.3592 507.575 13.867C527.608 6.31055 547.3 8.53554 564.513 20.3035C597.41 42.7903 617.489 95.8876 618.217 162.346C618.9 224.538 602.227 286.322 575.997 330.817ZM444.697 75.7589C418.588 120.049 401.987 181.63 402.669 243.645C403.39 309.717 423.278 362.461 455.859 384.726C472.744 396.265 492.06 398.451 511.722 391.034C570.939 368.703 618.188 266.119 617.044 162.365C616.318 96.2897 596.435 43.5483 563.852 21.2759C546.967 9.73705 527.649 7.55602 507.989 14.9682C484.166 23.9542 462.275 45.9399 444.697 75.7589Z" fill="url(#paint27_linear)"/>
            <path d="M585.352 322.487C562.845 360.668 533.342 387.856 501.844 395.288C479.685 400.517 458.526 395.471 440.649 380.694C407.597 353.371 389.551 297.244 392.387 230.556C396.892 124.6 453.182 25.9833 517.867 10.7217C540.026 5.49372 561.185 10.5389 579.062 25.3164C612.114 52.6393 630.16 108.766 627.324 175.454C625.013 229.816 609.069 282.253 585.352 322.487ZM435.363 84.0621C411.745 124.126 395.861 176.393 393.56 230.608C390.741 296.929 408.623 352.696 441.399 379.791C458.979 394.324 479.788 399.286 501.576 394.15C565.784 379 621.672 280.875 626.155 175.405C628.975 109.083 611.09 53.3101 578.317 26.2218C560.736 11.6893 539.927 6.72725 518.139 11.863C486.932 19.2208 457.69 46.186 435.363 84.0621Z" fill="url(#paint28_linear)"/>
            <path d="M585.352 322.487C562.845 360.668 533.342 387.856 501.844 395.288C479.685 400.517 458.526 395.471 440.649 380.694C407.597 353.371 389.551 297.244 392.387 230.556C396.892 124.6 453.182 25.9833 517.867 10.7217C540.026 5.49372 561.185 10.5389 579.062 25.3164C612.114 52.6393 630.16 108.766 627.324 175.454C625.013 229.816 609.069 282.253 585.352 322.487ZM435.363 84.0621C411.745 124.126 395.861 176.393 393.56 230.608C390.741 296.929 408.623 352.696 441.399 379.791C458.979 394.324 479.788 399.286 501.576 394.15C565.784 379 621.672 280.875 626.155 175.405C628.975 109.083 611.09 53.3101 578.317 26.2218C560.736 11.6893 539.927 6.72725 518.139 11.863C486.932 19.2208 457.69 46.186 435.363 84.0621Z" fill="url(#paint29_linear)"/>
            <path d="M596.488 314.107C568.917 360.877 530.539 393.02 490.728 397.185C466.11 399.76 443.317 391.391 424.818 372.988C392.36 340.701 376.888 282.052 383.423 216.1C394.028 109.09 459.328 16.1066 528.985 8.82593C553.603 6.25079 576.396 14.6198 594.895 33.0231C627.353 65.3094 642.825 123.959 636.289 189.911C631.746 235.758 617.156 279.046 596.488 314.107ZM424.243 92.4274C403.655 127.353 389.118 170.491 384.588 216.217C378.088 281.819 393.435 340.113 425.644 372.154C443.884 390.299 466.348 398.549 490.607 396.015C559.739 388.789 624.57 296.282 635.125 189.794C641.628 124.187 626.281 65.8929 594.067 33.8502C575.827 15.7052 553.363 7.45422 529.104 9.98839C489.656 14.1144 451.606 46.0104 424.243 92.4274Z" fill="url(#paint30_linear)"/>
            <path d="M596.488 314.107C568.917 360.877 530.539 393.02 490.728 397.185C466.11 399.76 443.317 391.391 424.818 372.988C392.36 340.701 376.888 282.052 383.423 216.1C394.028 109.09 459.328 16.1066 528.985 8.82593C553.603 6.25079 576.396 14.6198 594.895 33.0231C627.353 65.3094 642.825 123.959 636.289 189.911C631.746 235.758 617.156 279.046 596.488 314.107ZM424.243 92.4274C403.655 127.353 389.118 170.491 384.588 216.217C378.088 281.819 393.435 340.113 425.644 372.154C443.884 390.299 466.348 398.549 490.607 396.015C559.739 388.789 624.57 296.282 635.125 189.794C641.628 124.187 626.281 65.8929 594.067 33.8502C575.827 15.7052 553.363 7.45422 529.104 9.98839C489.656 14.1144 451.606 46.0104 424.243 92.4274Z" fill="url(#paint31_linear)"/>
            <path d="M609.084 306.594C576.38 362.082 527.581 398.646 478.808 397.692C451.356 397.157 426.804 384.868 407.816 362.155C376.791 325.047 364.402 264.533 374.676 200.28C391.834 92.9695 466.407 6.85656 540.907 8.31416C568.359 8.8488 592.909 21.1419 611.897 43.8555C642.921 80.9634 655.31 141.477 645.037 205.73C639.111 242.788 626.331 277.326 609.084 306.594ZM411.656 99.945C394.468 129.102 381.735 163.521 375.828 200.466C365.61 264.388 377.905 324.552 408.711 361.403C427.482 383.847 451.724 395.994 478.828 396.523C552.766 397.967 626.807 312.298 643.877 205.546C654.096 141.624 641.808 81.4579 610.994 44.6095C592.23 22.163 567.982 10.0177 540.878 9.489C492.531 8.5397 444.135 44.8476 411.656 99.945Z" fill="url(#paint32_linear)"/>
            <path d="M609.084 306.594C576.38 362.082 527.581 398.646 478.808 397.692C451.356 397.157 426.804 384.868 407.816 362.155C376.791 325.047 364.402 264.533 374.676 200.28C391.834 92.9695 466.407 6.85656 540.907 8.31416C568.359 8.8488 592.909 21.1419 611.897 43.8555C642.921 80.9634 655.31 141.477 645.037 205.73C639.111 242.788 626.331 277.326 609.084 306.594ZM411.656 99.945C394.468 129.102 381.735 163.521 375.828 200.466C365.61 264.388 377.905 324.552 408.711 361.403C427.482 383.847 451.724 395.994 478.828 396.523C552.766 397.967 626.807 312.298 643.877 205.546C654.096 141.624 641.808 81.4579 610.994 44.6095C592.23 22.163 567.982 10.0177 540.878 9.489C492.531 8.5397 444.135 44.8476 411.656 99.945Z" fill="url(#paint33_linear)"/>
            <path d="M622.745 300.801C584.999 364.843 524.237 404.736 466.11 396.7C435.426 392.464 409.061 375.56 389.864 347.832C361.132 306.327 352.3 244.751 366.239 183.104C390.385 76.3314 474.435 -1.6345 553.604 9.30449C584.282 13.5427 610.649 30.4422 629.843 58.1746C658.575 99.6796 667.407 161.256 653.469 222.902C647.054 251.275 636.403 277.62 622.745 300.801ZM397.995 105.755C384.383 128.846 373.779 155.084 367.382 183.367C353.515 244.692 362.278 305.927 390.827 347.166C409.834 374.618 435.92 391.346 466.265 395.541C523.92 403.51 584.211 363.868 621.717 300.254C635.328 277.163 645.933 250.925 652.33 222.642C666.199 161.313 657.434 100.081 628.885 58.8431C609.878 31.3911 583.792 14.663 553.447 10.4682C495.791 2.49914 435.496 42.1388 397.995 105.755Z" fill="url(#paint34_linear)"/>
            <path d="M622.745 300.801C584.999 364.843 524.237 404.736 466.11 396.7C435.426 392.464 409.061 375.56 389.864 347.832C361.132 306.327 352.3 244.751 366.239 183.104C390.385 76.3314 474.435 -1.6345 553.604 9.30449C584.282 13.5427 610.649 30.4422 629.843 58.1746C658.575 99.6796 667.407 161.256 653.469 222.902C647.054 251.275 636.403 277.62 622.745 300.801ZM397.995 105.755C384.383 128.846 373.779 155.084 367.382 183.367C353.515 244.692 362.278 305.927 390.827 347.166C409.834 374.618 435.92 391.346 466.265 395.541C523.92 403.51 584.211 363.868 621.717 300.254C635.328 277.163 645.933 250.925 652.33 222.642C666.199 161.313 657.434 100.081 628.885 58.8431C609.878 31.3911 583.792 14.663 553.447 10.4682C495.791 2.49914 435.496 42.1388 397.995 105.755Z" fill="url(#paint35_linear)"/>
            <path d="M637.117 297.389C594.516 369.655 520.294 411.196 452.659 394.079C418.372 385.406 390.238 363.166 371.293 329.762C345.277 283.898 340.508 223.696 358.205 164.6C389.754 59.2544 483.444 -9.23569 567.051 11.9239C601.331 20.5993 629.465 42.8385 648.41 76.243C674.426 122.107 679.195 182.309 661.496 241.41C655.477 261.531 647.176 280.325 637.117 297.389ZM383.617 109.188C373.597 126.187 365.336 144.882 359.334 164.936C341.726 223.732 346.459 283.597 372.315 329.184C391.1 362.301 418.978 384.348 452.946 392.945C520.064 409.933 593.76 368.628 636.097 296.817C646.118 279.818 654.378 261.124 660.381 241.07C677.989 182.273 673.256 122.409 647.4 76.8217C628.614 43.7049 600.737 21.658 566.773 13.0634C499.648 -3.923 425.948 37.3797 383.617 109.188Z" fill="url(#paint36_linear)"/>
            <path d="M637.117 297.389C594.516 369.655 520.294 411.196 452.659 394.079C418.372 385.406 390.238 363.166 371.293 329.762C345.277 283.898 340.508 223.696 358.205 164.6C389.754 59.2544 483.444 -9.23569 567.051 11.9239C601.331 20.5993 629.465 42.8385 648.41 76.243C674.426 122.107 679.195 182.309 661.496 241.41C655.477 261.531 647.176 280.325 637.117 297.389ZM383.617 109.188C373.597 126.187 365.336 144.882 359.334 164.936C341.726 223.732 346.459 283.597 372.315 329.184C391.1 362.301 418.978 384.348 452.946 392.945C520.064 409.933 593.76 368.628 636.097 296.817C646.118 279.818 654.378 261.124 660.381 241.07C677.989 182.273 673.256 122.409 647.4 76.8217C628.614 43.7049 600.737 21.658 566.773 13.0634C499.648 -3.923 425.948 37.3797 383.617 109.188Z" fill="url(#paint37_linear)"/>
            <path d="M651.923 296.775C604.699 376.896 515.572 417.901 438.503 389.715C400.833 375.941 370.299 346.867 352.518 307.843C330.341 259.181 329.676 199.747 350.682 144.78C390.028 41.8353 493.447 -15.8056 581.212 16.2899C618.881 30.0635 649.416 59.1375 667.195 98.1553C689.369 146.822 690.034 206.255 669.032 261.218C664.234 273.769 658.479 285.654 651.923 296.775ZM368.801 109.819C362.274 120.892 356.552 132.709 351.777 145.202C330.878 199.88 331.539 258.982 353.583 307.361C371.237 346.093 401.535 374.951 438.905 388.614C515.431 416.597 603.966 375.818 650.914 296.186C657.441 285.113 663.163 273.295 667.938 260.802C688.835 206.129 688.176 147.022 666.13 98.6486C648.48 59.9186 618.182 31.0605 580.807 17.3956C504.279 -10.5943 415.742 30.1886 368.801 109.819Z" fill="url(#paint38_linear)"/>
            <path d="M651.923 296.775C604.699 376.896 515.572 417.901 438.503 389.715C400.833 375.941 370.299 346.867 352.518 307.843C330.341 259.181 329.676 199.747 350.682 144.78C390.028 41.8353 493.447 -15.8056 581.212 16.2899C618.881 30.0635 649.416 59.1375 667.195 98.1553C689.369 146.822 690.034 206.255 669.032 261.218C664.234 273.769 658.479 285.654 651.923 296.775ZM368.801 109.819C362.274 120.892 356.552 132.709 351.777 145.202C330.878 199.88 331.539 258.982 353.583 307.361C371.237 346.093 401.535 374.951 438.905 388.614C515.431 416.597 603.966 375.818 650.914 296.186C657.441 285.113 663.163 273.295 667.938 260.802C688.835 206.129 688.176 147.022 666.13 98.6486C648.48 59.9186 618.182 31.0605 580.807 17.3956C504.279 -10.5943 415.742 30.1886 368.801 109.819Z" fill="url(#paint39_linear)"/>
            <path d="M666.978 299.156C615.307 386.82 509.937 424.662 423.692 383.493C332.111 339.771 296.255 223.234 343.763 123.715C366.775 75.5146 405.682 38.4397 453.309 19.3235C500.96 0.197496 551.638 1.33516 596.013 22.52C640.383 43.7023 673.133 82.3965 688.23 131.472C703.32 180.53 698.956 234.092 675.944 282.293C673.176 288.095 670.175 293.724 666.978 299.156ZM353.841 107.267C350.61 112.749 347.6 118.402 344.821 124.222C297.591 223.159 333.199 338.991 424.199 382.435C509.883 423.339 614.601 385.688 665.967 298.56C669.153 293.157 672.128 287.571 674.891 281.789C697.775 233.854 702.114 180.594 687.111 131.816C672.114 83.0585 639.585 44.6177 595.514 23.5762C551.439 2.53908 501.096 1.41097 453.753 20.4131C412.139 37.1082 377.224 67.5997 353.841 107.267Z" fill="url(#paint40_linear)"/>
            <path d="M666.978 299.156C615.307 386.82 509.937 424.662 423.692 383.493C332.111 339.771 296.255 223.234 343.763 123.715C366.775 75.5146 405.682 38.4397 453.309 19.3235C500.96 0.197496 551.638 1.33516 596.013 22.52C640.383 43.7023 673.133 82.3965 688.23 131.472C703.32 180.53 698.956 234.092 675.944 282.293C673.176 288.095 670.175 293.724 666.978 299.156ZM353.841 107.267C350.61 112.749 347.6 118.402 344.821 124.222C297.591 223.159 333.199 338.991 424.199 382.435C509.883 423.339 614.601 385.688 665.967 298.56C669.153 293.157 672.128 287.571 674.891 281.789C697.775 233.854 702.114 180.594 687.111 131.816C672.114 83.0585 639.585 44.6177 595.514 23.5762C551.439 2.53908 501.096 1.41097 453.753 20.4131C412.139 37.1082 377.224 67.5997 353.841 107.267Z" fill="url(#paint41_linear)"/>
            <path d="M682.148 304.569C626.147 399.569 503.294 431.297 408.29 375.294C313.291 319.292 281.562 196.44 337.563 101.44C393.567 6.43615 516.419 -25.2925 611.419 30.7087C706.423 86.7126 738.152 209.565 682.148 304.569ZM338.574 102.036C282.902 196.478 314.444 318.61 408.886 374.283C503.333 429.958 625.465 398.415 681.137 303.973C736.809 209.531 705.269 87.3947 610.823 31.7197C516.381 -23.9527 394.249 7.58987 338.574 102.036Z" fill="url(#paint42_linear)"/>
            <path d="M682.148 304.569C626.147 399.569 503.294 431.297 408.29 375.294C313.291 319.292 281.562 196.44 337.563 101.44C393.567 6.43615 516.419 -25.2925 611.419 30.7087C706.423 86.7126 738.152 209.565 682.148 304.569ZM338.574 102.036C282.902 196.478 314.444 318.61 408.886 374.283C503.333 429.958 625.465 398.415 681.137 303.973C736.809 209.531 705.269 87.3947 610.823 31.7197C516.381 -23.9527 394.249 7.58987 338.574 102.036Z" fill="url(#paint43_linear)"/>
        </g>
    </g>
    <defs>
        <linearGradient id="paint0_linear" x1="-19.0371" y1="44.4995" x2="261.981" y2="393.314" gradientUnits="userSpaceOnUse">
            <stop stop-color="#4010FF"/>
            <stop offset="1" stop-color="#67FFD5"/>
        </linearGradient>
        <linearGradient id="paint1_linear" x1="67.1309" y1="-15.5005" x2="238.904" y2="243.143" gradientUnits="userSpaceOnUse">
            <stop stop-color="white"/>
            <stop offset="1" stop-color="white" stop-opacity="0"/>
        </linearGradient>
        <linearGradient id="paint2_linear" x1="398.685" y1="271.495" x2="621.571" y2="114.513" gradientUnits="userSpaceOnUse">
            <stop stop-color="#4010FF"/>
            <stop offset="1" stop-color="#67FFD5"/>
        </linearGradient>
        <linearGradient id="paint3_linear" x1="357.545" y1="205.331" x2="534.766" y2="99.9194" gradientUnits="userSpaceOnUse">
            <stop stop-color="white"/>
            <stop offset="1" stop-color="white" stop-opacity="0"/>
        </linearGradient>
        <linearGradient id="paint4_linear" x1="393.967" y1="277.868" x2="633.163" y2="116.481" gradientUnits="userSpaceOnUse">
            <stop stop-color="#4010FF"/>
            <stop offset="1" stop-color="#67FFD5"/>
        </linearGradient>
        <linearGradient id="paint5_linear" x1="353.269" y1="209.1" x2="542.671" y2="102.13" gradientUnits="userSpaceOnUse">
            <stop stop-color="white"/>
            <stop offset="1" stop-color="white" stop-opacity="0"/>
        </linearGradient>
        <linearGradient id="paint6_linear" x1="389.382" y1="284.399" x2="644.896" y2="119.57" gradientUnits="userSpaceOnUse">
            <stop stop-color="#4010FF"/>
            <stop offset="1" stop-color="#67FFD5"/>
        </linearGradient>
        <linearGradient id="paint7_linear" x1="349.33" y1="213.125" x2="550.74" y2="105.39" gradientUnits="userSpaceOnUse">
            <stop stop-color="white"/>
            <stop offset="1" stop-color="white" stop-opacity="0"/>
        </linearGradient>
        <linearGradient id="paint8_linear" x1="384.924" y1="290.993" x2="656.553" y2="123.65" gradientUnits="userSpaceOnUse">
            <stop stop-color="#4010FF"/>
            <stop offset="1" stop-color="#67FFD5"/>
        </linearGradient>
        <linearGradient id="paint9_linear" x1="345.66" y1="217.299" x2="558.749" y2="109.522" gradientUnits="userSpaceOnUse">
            <stop stop-color="white"/>
            <stop offset="1" stop-color="white" stop-opacity="0"/>
        </linearGradient>
        <linearGradient id="paint10_linear" x1="380.705" y1="297.64" x2="668.047" y2="128.943" gradientUnits="userSpaceOnUse">
            <stop stop-color="#4010FF"/>
            <stop offset="1" stop-color="#67FFD5"/>
        </linearGradient>
        <linearGradient id="paint11_linear" x1="342.434" y1="221.675" x2="566.694" y2="114.739" gradientUnits="userSpaceOnUse">
            <stop stop-color="white"/>
            <stop offset="1" stop-color="white" stop-opacity="0"/>
        </linearGradient>
        <linearGradient id="paint12_linear" x1="376.74" y1="304.126" x2="678.948" y2="135.062" gradientUnits="userSpaceOnUse">
            <stop stop-color="#4010FF"/>
            <stop offset="1" stop-color="#67FFD5"/>
        </linearGradient>
        <linearGradient id="paint13_linear" x1="339.556" y1="226.043" x2="574.187" y2="120.615" gradientUnits="userSpaceOnUse">
            <stop stop-color="white"/>
            <stop offset="1" stop-color="white" stop-opacity="0"/>
        </linearGradient>
        <linearGradient id="paint14_linear" x1="372.893" y1="310.592" x2="689.454" y2="141.991" gradientUnits="userSpaceOnUse">
            <stop stop-color="#4010FF"/>
            <stop offset="1" stop-color="#67FFD5"/>
        </linearGradient>
        <linearGradient id="paint15_linear" x1="336.872" y1="230.465" x2="581.329" y2="127.11" gradientUnits="userSpaceOnUse">
            <stop stop-color="white"/>
            <stop offset="1" stop-color="white" stop-opacity="0"/>
        </linearGradient>
        <linearGradient id="paint16_linear" x1="369.213" y1="316.821" x2="699.213" y2="149.271" gradientUnits="userSpaceOnUse">
            <stop stop-color="#4010FF"/>
            <stop offset="1" stop-color="#67FFD5"/>
        </linearGradient>
        <linearGradient id="paint17_linear" x1="334.337" y1="234.743" x2="587.84" y2="133.775" gradientUnits="userSpaceOnUse">
            <stop stop-color="white"/>
            <stop offset="1" stop-color="white" stop-opacity="0"/>
        </linearGradient>
        <linearGradient id="paint18_linear" x1="365.686" y1="322.722" x2="708.131" y2="156.481" gradientUnits="userSpaceOnUse">
            <stop stop-color="#4010FF"/>
            <stop offset="1" stop-color="#67FFD5"/>
        </linearGradient>
        <linearGradient id="paint19_linear" x1="331.859" y1="238.765" x2="593.64" y2="140.223" gradientUnits="userSpaceOnUse">
            <stop stop-color="white"/>
            <stop offset="1" stop-color="white" stop-opacity="0"/>
        </linearGradient>
        <linearGradient id="paint20_linear" x1="362.248" y1="328.185" x2="716.143" y2="163.032" gradientUnits="userSpaceOnUse">
            <stop stop-color="#4010FF"/>
            <stop offset="1" stop-color="#67FFD5"/>
        </linearGradient>
        <linearGradient id="paint21_linear" x1="329.264" y1="242.383" x2="598.647" y2="145.927" gradientUnits="userSpaceOnUse">
            <stop stop-color="white"/>
            <stop offset="1" stop-color="white" stop-opacity="0"/>
        </linearGradient>
        <linearGradient id="paint22_linear" x1="358.838" y1="333.097" x2="723.268" y2="168.234" gradientUnits="userSpaceOnUse">
            <stop stop-color="#4010FF"/>
            <stop offset="1" stop-color="#67FFD5"/>
        </linearGradient>
        <linearGradient id="paint23_linear" x1="326.37" y1="245.433" x2="602.851" y2="150.288" gradientUnits="userSpaceOnUse">
            <stop stop-color="white"/>
            <stop offset="1" stop-color="white" stop-opacity="0"/>
        </linearGradient>
        <linearGradient id="paint24_linear" x1="355.354" y1="337.357" x2="729.57" y2="171.323" gradientUnits="userSpaceOnUse">
            <stop stop-color="#4010FF"/>
            <stop offset="1" stop-color="#67FFD5"/>
        </linearGradient>
        <linearGradient id="paint25_linear" x1="322.929" y1="247.746" x2="606.252" y2="152.646" gradientUnits="userSpaceOnUse">
            <stop stop-color="white"/>
            <stop offset="1" stop-color="white" stop-opacity="0"/>
        </linearGradient>
        <linearGradient id="paint26_linear" x1="351.695" y1="340.823" x2="735.081" y2="171.483" gradientUnits="userSpaceOnUse">
            <stop stop-color="#4010FF"/>
            <stop offset="1" stop-color="#67FFD5"/>
        </linearGradient>
        <linearGradient id="paint27_linear" x1="318.688" y1="249.107" x2="608.816" y2="152.286" gradientUnits="userSpaceOnUse">
            <stop stop-color="white"/>
            <stop offset="1" stop-color="white" stop-opacity="0"/>
        </linearGradient>
        <linearGradient id="paint28_linear" x1="347.768" y1="343.403" x2="739.762" y2="168.054" gradientUnits="userSpaceOnUse">
            <stop stop-color="#4010FF"/>
            <stop offset="1" stop-color="#67FFD5"/>
        </linearGradient>
        <linearGradient id="paint29_linear" x1="313.403" y1="249.359" x2="610.442" y2="148.603" gradientUnits="userSpaceOnUse">
            <stop stop-color="white"/>
            <stop offset="1" stop-color="white" stop-opacity="0"/>
        </linearGradient>
        <linearGradient id="paint30_linear" x1="343.465" y1="344.988" x2="743.434" y2="160.567" gradientUnits="userSpaceOnUse">
            <stop stop-color="#4010FF"/>
            <stop offset="1" stop-color="#67FFD5"/>
        </linearGradient>
        <linearGradient id="paint31_linear" x1="306.835" y1="248.319" x2="610.896" y2="141.104" gradientUnits="userSpaceOnUse">
            <stop stop-color="white"/>
            <stop offset="1" stop-color="white" stop-opacity="0"/>
        </linearGradient>
        <linearGradient id="paint32_linear" x1="338.714" y1="345.518" x2="745.747" y2="148.928" gradientUnits="userSpaceOnUse">
            <stop stop-color="#4010FF"/>
            <stop offset="1" stop-color="#67FFD5"/>
        </linearGradient>
        <linearGradient id="paint33_linear" x1="298.81" y1="245.877" x2="609.793" y2="129.567" gradientUnits="userSpaceOnUse">
            <stop stop-color="white"/>
            <stop offset="1" stop-color="white" stop-opacity="0"/>
        </linearGradient>
        <linearGradient id="paint34_linear" x1="333.463" y1="344.974" x2="746.243" y2="133.48" gradientUnits="userSpaceOnUse">
            <stop stop-color="#4010FF"/>
            <stop offset="1" stop-color="#67FFD5"/>
        </linearGradient>
        <linearGradient id="paint35_linear" x1="289.229" y1="241.982" x2="606.639" y2="114.115" gradientUnits="userSpaceOnUse">
            <stop stop-color="white"/>
            <stop offset="1" stop-color="white" stop-opacity="0"/>
        </linearGradient>
        <linearGradient id="paint36_linear" x1="327.692" y1="343.36" x2="744.449" y2="114.894" gradientUnits="userSpaceOnUse">
            <stop stop-color="#4010FF"/>
            <stop offset="1" stop-color="#67FFD5"/>
        </linearGradient>
        <linearGradient id="paint37_linear" x1="278.056" y1="236.626" x2="600.906" y2="95.149" gradientUnits="userSpaceOnUse">
            <stop stop-color="white"/>
            <stop offset="1" stop-color="white" stop-opacity="0"/>
        </linearGradient>
        <linearGradient id="paint38_linear" x1="321.439" y1="340.646" x2="739.905" y2="94.0067" gradientUnits="userSpaceOnUse">
            <stop stop-color="#4010FF"/>
            <stop offset="1" stop-color="#67FFD5"/>
        </linearGradient>
        <linearGradient id="paint39_linear" x1="265.339" y1="229.796" x2="592.074" y2="73.2497" gradientUnits="userSpaceOnUse">
            <stop stop-color="white"/>
            <stop offset="1" stop-color="white" stop-opacity="0"/>
        </linearGradient>
        <linearGradient id="paint40_linear" x1="314.558" y1="337.137" x2="732.875" y2="72.0084" gradientUnits="userSpaceOnUse">
            <stop stop-color="#4010FF"/>
            <stop offset="1" stop-color="#67FFD5"/>
        </linearGradient>
        <linearGradient id="paint41_linear" x1="251.015" y1="221.729" x2="580.156" y2="49.4059" gradientUnits="userSpaceOnUse">
            <stop stop-color="white"/>
            <stop offset="1" stop-color="white" stop-opacity="0"/>
        </linearGradient>
        <linearGradient id="paint42_linear" x1="307.098" y1="332.873" x2="723.412" y2="49.7106" gradientUnits="userSpaceOnUse">
            <stop stop-color="#4010FF"/>
            <stop offset="1" stop-color="#67FFD5"/>
        </linearGradient>
        <linearGradient id="paint43_linear" x1="235.191" y1="212.492" x2="565.101" y2="24.3428" gradientUnits="userSpaceOnUse">
            <stop stop-color="white"/>
            <stop offset="1" stop-color="white" stop-opacity="0"/>
        </linearGradient>
    </defs>
</svg>
